<svg xmlns:xlink="http://www.w3.org/1999/xlink" xmlns="http://www.w3.org/2000/svg" version="1.1" viewBox="0 0 1024 1024" height="1024px" width="1024px">
    <title>无网络</title>
    <defs>
        <linearGradient id="linearGradient-1" y2="44.0501254%" x2="50%" y1="-29.88559%" x1="50%">
            <stop offset="0%" stop-color="#CFDFFA"></stop>
            <stop offset="100%" stop-opacity="0" stop-color="#EAF0FC"></stop>
        </linearGradient>
        <linearGradient id="linearGradient-2" y2="69.8229089%" x2="53.6226986%" y1="33.7484636%" x1="50%">
            <stop offset="0%" stop-color="#CFDFFA"></stop>
            <stop offset="100%" stop-opacity="0" stop-color="#EAF0FC"></stop>
        </linearGradient>
        <linearGradient id="linearGradient-3" y2="66.4977364%" x2="53.6226986%" y1="36.47456%" x1="50%">
            <stop offset="0%" stop-color="#CFDFFA"></stop>
            <stop offset="100%" stop-opacity="0" stop-color="#EAF0FC"></stop>
        </linearGradient>
        <linearGradient id="linearGradient-4" y2="100%" x2="57.28025%" y1="11.4973736%" x1="50%">
            <stop offset="0%" stop-color="#BFD4FA"></stop>
            <stop offset="100%" stop-color="#5792F0"></stop>
        </linearGradient>
        <linearGradient id="linearGradient-5" y2="131.881015%" x2="51.9400923%" y1="11.4973736%" x1="50%">
            <stop offset="0%" stop-color="#BFD4FA"></stop>
            <stop offset="100%" stop-color="#5792F0"></stop>
        </linearGradient>
        <linearGradient id="linearGradient-6" y2="128.49897%" x2="74.2827921%" y1="13.0877007%" x1="50%">
            <stop offset="0%" stop-color="#BFD4FA"></stop>
            <stop offset="100%" stop-color="#5792F0"></stop>
        </linearGradient>
        <linearGradient id="linearGradient-7" y2="131.881015%" x2="54.0733641%" y1="11.4973736%" x1="50%">
            <stop offset="0%" stop-color="#BFD4FA"></stop>
            <stop offset="100%" stop-color="#5792F0"></stop>
        </linearGradient>
        <linearGradient id="linearGradient-8" y2="131.881015%" x2="51.9795749%" y1="11.4973736%" x1="50%">
            <stop offset="0%" stop-color="#BFD4FA"></stop>
            <stop offset="100%" stop-color="#5792F0"></stop>
        </linearGradient>
        <linearGradient id="linearGradient-9" y2="131.881015%" x2="55.3643684%" y1="11.4973736%" x1="50%">
            <stop offset="0%" stop-color="#BFD4FA"></stop>
            <stop offset="100%" stop-color="#5792F0"></stop>
        </linearGradient>
        <linearGradient id="linearGradient-10" y2="53.7022797%" x2="74.2827921%" y1="48.2590898%" x1="50%">
            <stop offset="0%" stop-color="#BFD4FA"></stop>
            <stop offset="100%" stop-color="#5792F0"></stop>
        </linearGradient>
        <linearGradient id="linearGradient-11" y2="157.920763%" x2="-41.8115334%" y1="26.2390594%" x1="74.7096246%">
            <stop offset="0%" stop-color="#BFD4FA"></stop>
            <stop offset="100%" stop-color="#5792F0"></stop>
        </linearGradient>
        <linearGradient id="linearGradient-12" y2="72.5764974%" x2="25.7283138%" y1="36.5926785%" x1="64.3532982%">
            <stop offset="0%" stop-color="#CFDFFA"></stop>
            <stop offset="100%" stop-opacity="0" stop-color="#EAF0FC"></stop>
        </linearGradient>
        <linearGradient id="linearGradient-13" y2="84.118848%" x2="25.7283138%" y1="29.7381164%" x1="64.3532982%">
            <stop offset="0%" stop-color="#CFDFFA"></stop>
            <stop offset="100%" stop-opacity="0" stop-color="#EAF0FC"></stop>
        </linearGradient>
        <linearGradient id="linearGradient-14" y2="85.0238228%" x2="-195.180649%" y1="53.059031%" x1="92.8632495%">
            <stop offset="0%" stop-color="#BFD4FA"></stop>
            <stop offset="100%" stop-color="#5792F0"></stop>
        </linearGradient>
        <linearGradient id="linearGradient-15" y2="157.920763%" x2="14.6290882%" y1="26.2390594%" x1="59.5195224%">
            <stop offset="0%" stop-color="#BFD4FA"></stop>
            <stop offset="100%" stop-color="#5792F0"></stop>
        </linearGradient>
        <linearGradient id="linearGradient-16" y2="157.920763%" x2="14.8159883%" y1="26.2390594%" x1="59.4692212%">
            <stop offset="0%" stop-color="#BFD4FA"></stop>
            <stop offset="100%" stop-color="#5792F0"></stop>
        </linearGradient>
        <linearGradient id="linearGradient-17" y2="100%" x2="50%" y1="-19.0038784%" x1="50%">
            <stop offset="0%" stop-color="#FFCDA5"></stop>
            <stop offset="100%" stop-color="#FFE8D1"></stop>
        </linearGradient>
        <linearGradient id="linearGradient-18" y2="100%" x2="50%" y1="0%" x1="50%">
            <stop offset="0%" stop-color="#FFF2DF"></stop>
            <stop offset="100%" stop-color="#FEE0BC"></stop>
        </linearGradient>
        <linearGradient id="linearGradient-19" y2="100%" x2="50%" y1="0%" x1="50%">
            <stop offset="0%" stop-color="#FEE127"></stop>
            <stop offset="100%" stop-color="#F9AB21"></stop>
        </linearGradient>
        <linearGradient id="linearGradient-20" y2="55.5555556%" x2="100%" y1="44.4444444%" x1="-7.15035485%">
            <stop offset="0%" stop-color="#BFD4FA"></stop>
            <stop offset="100%" stop-color="#5792F0"></stop>
        </linearGradient>
    </defs>
    <g fill-rule="evenodd" fill="none" stroke-width="1" stroke="none" id="无网络">
        <rect height="1024" width="1024" y="0" x="0" id="矩形"></rect>
        <g transform="translate(32.000000, 149.000000)" id="编组-2">
            <g id="背景">
                <ellipse ry="250" rx="480" cy="766" cx="480" fill="url(#linearGradient-1)" id="椭圆形"></ellipse>
                <path fill="url(#linearGradient-2)" id="云" d="M814,116.212121 C814,130.606061 800.181818,142.121212 782.727273,142.121212 L686,142.121212 C668.545455,140.969697 654,130.030303 654,115.060606 C654,105.272727 660.545455,96.6363636 670,92.030303 C669.272727,90.3030303 668.545455,88.5757576 668.545455,86.8484848 C668.545455,77.0606061 678,68.4242424 690.363636,68.4242424 C695.454545,68.4242424 699.818182,70.1515152 703.454545,72.4545455 C712.181818,59.2121212 728.181818,50 747.090909,50 C773.272727,50 794.363636,67.8484848 794.363636,89.7272727 L794.363636,92.030303 C806,96.0606061 814,105.272727 814,116.212121 Z"></path>
                <path fill="url(#linearGradient-3)" id="云" d="M166.222222,0 C190.894883,0 211.8847,15.7681262 219.664106,37.7768098 L256.5,37.7777778 C266.164983,37.7777778 274,45.6127947 274,55.2777778 L274,98.0555556 C274,107.720539 266.164983,115.555556 256.5,115.555556 L78.1666667,115.555556 C68.5016835,115.555556 60.6666667,107.720539 60.6666667,98.0555556 L60.6669111,85.6467185 C56.4406838,78.8453656 54,70.81882 54,62.2222222 C54,37.6762333 73.8984556,17.7777778 98.4444444,17.7777778 C106.377692,17.7777778 113.825468,19.8563268 120.272891,23.4985432 C130.565544,9.26259942 147.312185,0 166.222222,0 Z"></path>
                <g transform="translate(170.000000, 570.000000)" id="草">
                    <ellipse ry="4" rx="12.8" cy="78" cx="26.8" fill="#CCDCF6" id="椭圆形"></ellipse>
                    <path fill-rule="nonzero" fill="url(#linearGradient-4)" id="路径-42" d="M13.2096985,76.4334696 C14.9527214,47.3262499 22.2548023,30.479152 35.1159413,25.892176 C40.1793835,25.2161532 45.8226773,24.1997042 41.8878028,30.7617951 C37.9529282,37.3238861 27.4160559,34.7701422 16.879533,76.4161198 C15.9265298,78.1966928 14.7032516,78.202476 13.2096985,76.4334696 Z"></path>
                    <path fill-rule="nonzero" fill="url(#linearGradient-5)" id="路径-41" d="M12.9692534,76.0688036 C9.54744327,48.8820916 6.74680699,31.7849012 4.56734456,24.7772324 C1.2981509,14.2657291 -5.66257226,-5.963969 8.82439601,1.68943966 C23.3113643,9.34284832 25.0241679,48.6011298 18.327685,72.4929976 C16.2462776,78.5387167 14.4601337,79.730652 12.9692534,76.0688036 Z"></path>
                </g>
                <g fill-rule="nonzero" transform="translate(686.120225, 515.426704)" id="草">
                    <path fill="url(#linearGradient-6)" id="路径-43" d="M65.8576891,95.4430222 C63.3395468,83.9806553 55.9856639,75.9680543 43.7960405,71.4052192 C29.8759357,66.9305791 22.2494886,61.6117041 30.9599814,57.7550267 C38.3155159,57.1703291 54.0022982,51.4419217 65.8576891,85.6583003 C66.6827635,88.9740418 66.6827635,92.2356158 65.8576891,95.4430222 Z"></path>
                    <path fill="url(#linearGradient-7)" id="路径-44" d="M66.4764949,97.2611071 C59.1454779,69.8960192 50.8174439,49.9170768 41.4923928,37.3242799 C34.6452589,28.7188412 35.1250476,16.405104 41.4923928,13.6218727 C48.0100381,12.8970718 60.0222617,11.7760378 69.0669112,58.9373338 C69.6381527,62.1812743 72.8251647,81.1589956 69.0669112,93.4066801 C68.5106318,95.0875751 67.6471596,96.3723841 66.4764949,97.2611071 Z"></path>
                    <path fill="url(#linearGradient-8)" id="路径-45" d="M68.1696321,91.0804085 C71.4853494,78.835463 71.0643832,62.8586309 66.9067333,43.1499123 C60.5471905,24.0440706 49.6921744,0.541796566 69.4774519,0 C77.5044316,1.09154868 87.1972186,9.50543486 83.5347739,51.4392686 C81.3029234,68.3604083 77.4213217,78.3565362 73.3477064,91.0804085 C71.9266832,91.8737887 70.2006584,91.8737887 68.1696321,91.0804085 Z"></path>
                    <path fill="url(#linearGradient-9)" id="路径-46" d="M72.0427224,95.836031 C70.7154818,61.2121058 77.0522244,36.363996 91.0529503,21.2917016 C94.833726,16.2551414 109.217459,11.5380494 109.163159,27.3263959 C107.661554,34.1152854 104.448437,48.6087163 85.9202741,70.7214245 C79.8162941,78.7025415 75.8046094,90.365172 75.7655073,93.0996265 C75.7394392,94.9225962 74.4985109,95.834731 72.0427224,95.836031 Z"></path>
                    <path fill="url(#linearGradient-10)" id="路径-47" d="M0,100.407711 C13.8643816,97.8236334 21.5103995,95.6299697 22.9380537,93.8267198 C25.0795349,91.1218449 43.9450099,79.5080271 55.7094426,89.2905093 C58.2703723,85.9992821 66.4835238,83.4391237 71.1837342,89.2905093 C73.3341085,80.0524096 86.7490663,74.1360276 92.583369,75.0945046 C99.1537088,74.5803177 118.55034,74.7942504 120,100.407711 C114.707841,100.530921 74.7078414,100.530921 0,100.407711 Z"></path>
                </g>
            </g>
            <g transform="translate(402.921182, 316.779016) scale(-1, 1) translate(-402.921182, -316.779016) translate(162.921182, 104.701820)" id="暂无数据">
                <g transform="translate(52.159423, 99.939296)" id="编组">
                    <path fill-rule="nonzero" fill="#FFFFFF" id="路径" d="M124.086523,116.100628 L250.247685,116.100628 C257.893369,116.100628 261.71554,119.924141 261.71554,127.571167 C261.71554,135.216851 257.893369,139.040363 250.247685,139.040363 L124.086523,139.040363 C116.440839,139.040363 112.617326,135.216851 112.617326,127.571167 C112.617326,119.9228 116.440839,116.100628 124.086523,116.100628 L124.086523,116.100628 Z"></path>
                    <path fill-rule="nonzero" fill="#FFFFFF" id="路径" d="M124.086523,173.447953 L215.841437,173.447953 C223.484438,173.447953 227.310633,177.271466 227.310633,184.915808 C227.310633,192.561492 223.484438,196.386346 215.841437,196.386346 L124.086523,196.386346 C116.440839,196.386346 112.617326,192.561492 112.617326,184.915808 C112.617326,177.271466 116.440839,173.447953 124.086523,173.447953 L124.086523,173.447953 Z"></path>
                    <circle r="162.107548" cy="162.107548" cx="223.084646" fill-rule="nonzero" fill="url(#linearGradient-11)" id="椭圆形"></circle>
                    <ellipse ry="17.355841" rx="33.5165766" cy="62.0727091" cx="274.845801" transform="translate(274.845801, 62.072709) rotate(17.067486) translate(-274.845801, -62.072709)" fill="url(#linearGradient-12)" id="椭圆形"></ellipse>
                    <circle r="35.5794741" cy="134.106813" cx="191.704806" opacity="0.200000003" fill-rule="nonzero" fill="#5792F0" id="椭圆形"></circle>
                    <ellipse ry="8.14752458" rx="12.7988448" cy="87.9653803" cx="120.127664" transform="translate(120.127664, 87.965380) rotate(-46.235767) translate(-120.127664, -87.965380)" fill="url(#linearGradient-13)" id="椭圆形"></ellipse>
                    <path fill-rule="nonzero" fill="url(#linearGradient-14)" id="路径" d="M382.696849,190.164082 C382.381577,192.053032 381.10237,198.246531 380.72136,200.111332 C408.745696,218.909599 421.566739,235.596327 417.641554,244.762311 C406.642483,272.84005 295.526047,261.057405 197.111396,229.618932 C98.6967462,198.18046 0.0835437329,141.673749 12.3111166,116.100628 C21.6734585,102.530347 55.898523,102.844187 72.1381576,102.844187 C72.9068849,101.085371 75.8096435,94.8257987 76.6374004,93.1005225 C34.458018,91.5912411 5.81521212,98.7620045 0.782932741,114.957599 C-9.23601218,147.198532 78.0675284,202.985595 195.782082,239.562525 C313.493952,276.139455 417.041384,279.651721 427.058988,247.410788 C431.810876,232.108688 414.6319,211.501966 382.696849,190.164082 Z"></path>
                    <circle r="19.9592172" cy="201.382749" cx="340.992975" opacity="0.200000003" fill-rule="nonzero" fill="#5792F0" id="椭圆形"></circle>
                    <circle r="12.1490887" cy="214.39963" cx="218.634296" opacity="0.200000003" fill-rule="nonzero" fill="#5792F0" id="椭圆形"></circle>
                </g>
                <path transform="translate(57.680434, 76.281394) scale(-1, 1) rotate(45.000000) translate(-57.680434, -76.281394)" fill-rule="nonzero" fill="url(#linearGradient-15)" id="形状" d="M51.4323317,95.1558713 L51.4323317,82.5728867 L57.6804345,82.5728867 C68.3022091,82.5728867 76.4247428,74.3939465 76.4247428,63.6984095 L76.4247428,57.4069171 C76.4247428,46.7113801 68.3022091,38.53244 57.6804345,38.53244 C47.0586598,38.53244 38.9361262,46.7113801 38.9361262,57.4069171 L38.9361262,63.6984095 L26.4399207,63.6984095 L26.4399207,57.4069171 C26.4399207,39.7907384 40.1857468,25.9494553 57.6804345,25.9494553 C75.1751221,25.9494553 88.9209483,39.7907386 88.9209483,57.4069171 L88.9209483,63.6984095 C88.9209483,78.7979912 78.2991736,91.3809759 63.9285373,94.5267221 L63.9285373,107.738856 L51.4323317,107.738856 L51.4323317,95.1558713 L51.4323317,95.1558713 Z M51.4323317,114.030348 L63.9285373,114.030348 L63.9285373,126.613333 L51.4323317,126.613333 L51.4323317,114.030348 Z"></path>
                <path transform="translate(132.068333, 41.044984) scale(-1, 1) rotate(15.000000) translate(-132.068333, -41.044984)" fill-rule="nonzero" fill="url(#linearGradient-16)" id="形状" d="M127.555814,54.7127093 L127.555814,45.6008928 L132.068333,45.6008928 C139.739615,45.6008928 145.605889,39.678212 145.605889,31.933168 L145.605889,27.3772597 C145.605889,19.6322157 139.739615,13.7095349 132.068333,13.7095349 C124.397051,13.7095349 118.530777,19.6322157 118.530777,27.3772597 L118.530777,31.933168 L109.50574,31.933168 L109.50574,27.3772597 C109.50574,14.6207165 119.433281,4.59771838 132.068333,4.59771838 C144.703385,4.59771838 154.630926,14.6207166 154.630926,27.3772597 L154.630926,31.933168 C154.630926,42.8673478 146.959644,51.9791643 136.580852,54.2571184 L136.580852,63.8245258 L127.555814,63.8245258 L127.555814,54.7127093 L127.555814,54.7127093 Z M127.555814,68.3804341 L136.580852,68.3804341 L136.580852,77.4922506 L127.555814,77.4922506 L127.555814,68.3804341 Z"></path>
            </g>
            <g transform="translate(486.000000, 468.000000)" id="人物">
                <ellipse ry="28.8" rx="90" cy="176" cx="90" fill="#CCDCF6" id="椭圆形"></ellipse>
                <path fill="#FEE0BC" id="胳膊-path" d="M36.2395535,105.69776 L26.712815,122.509131 C26.712815,122.509131 25.8147147,124.026462 26.0553541,125.475235 C26.3088848,126.991273 27.6968579,128.112347 27.6968579,128.112347 L56.0757021,144.001623 L56.2727762,130.090181 L44.1204909,122.838555 L52.9897684,109.324003 L36.2395535,105.69776 Z"></path>
                <path fill="#FEE0BC" id="胳膊-path" d="M153.791857,105.69776 L163.305704,122.509131 C163.305704,122.509131 164.199507,124.026462 163.958868,125.475235 C163.709634,126.991273 162.321661,128.112347 162.321661,128.112347 L134.067893,144.751661 L133.784417,130.090181 L145.919514,122.838555 L137.063128,109.324003 L153.791857,105.69776 Z"></path>
                <g transform="translate(66.284830, 0.000000)" id="脑袋">
                    <rect height="16" width="16" y="58" x="18.3408269" fill="url(#linearGradient-17)" id="矩形"></rect>
                    <ellipse ry="5" rx="3" cy="45" cx="46.7151702" transform="translate(46.715170, 45.000000) rotate(22.000000) translate(-46.715170, -45.000000)" fill="#FEE0BC" id="椭圆形"></ellipse>
                    <ellipse ry="5" rx="3" cy="45" cx="4.7151702" transform="translate(4.715170, 45.000000) scale(-1, 1) rotate(23.000000) translate(-4.715170, -45.000000)" fill="#FEE0BC" id="椭圆形备份-2"></ellipse>
                    <circle r="20" cy="42" cx="26.3408269" fill="url(#linearGradient-18)" id="椭圆形"></circle>
                    <ellipse ry="7" rx="9" cy="7" cx="24.7151702" fill="#483029" id="椭圆形"></ellipse>
                    <path fill="#483029" id="路径-51" d="M3.50346234,44 C17.3715312,36.4746607 24.8457247,30.2324035 25.9260427,25.2732285 C28.2679173,32.0022993 42.6404146,42.4238091 48.348623,42.3267746 C51.5066137,33.2201364 52.3806952,24.6473188 42.4076805,16.2874954 C32.4346657,7.92767201 20.9350447,7.88069729 8.33873356,16.2874954 C-0.130189727,23.4061673 -1.7419468,32.6436688 3.50346234,44 Z"></path>
                </g>
                <path fill="url(#linearGradient-19)" id="衣服" d="M84.9822157,64.4027957 C86.3838525,65.2250143 89.013026,67.5479659 92.8697364,71.3716504 C97.6922772,66.7257473 100.103548,64.4027957 100.103548,64.4027957 L120.153505,67.7017628 C120.153505,67.7017628 124.849891,68.4897176 127.714171,71.3299795 C135.627495,79.1763 148.753294,94.4218869 148.753294,94.4218869 L157.956835,104.648901 C155.664721,107.414285 153.010002,109.855557 150.065013,111.906197 C145.44604,115.078298 139.218597,117.515951 139.218597,117.515951 L131.989087,110.588336 L131.989087,159.079055 L58.3564575,159.079055 L58.3564575,109.926385 L54.0815417,115.20689 C54.0815417,115.20689 47.7508817,113.968429 42.2459599,111.24813 C38.5881945,109.352228 35.1680554,107.026702 32.057554,104.320514 L53.7546869,77.599959 C55.1037696,76.2018734 56.5295224,74.8803779 58.025302,73.6416299 C59.3843045,72.5596417 60.8123186,71.5679107 62.3002178,70.6727752 C64.1158122,69.8873298 65.9822854,69.2260265 67.8868533,68.6933949 C74.5916759,66.8387237 84.9822157,64.4027957 84.9822157,64.4027957 Z"></path>
                <path fill-rule="nonzero" fill="url(#linearGradient-20)" id="裤子" d="M138.90247,140.651777 C138.90247,140.651777 156.905066,133.151119 162.132044,149.507455 C166.740778,163.93949 151.340863,166.969885 151.340863,166.969885 L151.340863,166.969885 L139.69741,169.118767 L134.626636,185.266105 L93.4480576,177.65776 L52.2357922,185.266105 L47.1584173,169.105673 L35.6382976,166.978109 C35.6382976,166.978109 20.2556758,163.947716 24.8600862,149.523473 C30.0827414,133.174496 48.0637207,140.671692 48.0637207,140.671692 L93.4279137,152.783083 L138.90247,140.651777 Z"></path>
                <path fill="#FEE0BC" id="脚" d="M48.3068347,173.179774 L43.3471806,173.502346 C41.8060867,173.584157 40.26157,173.584157 38.7204761,173.502346 C35.5423194,173.369944 32.5933358,173.365306 32.5933358,173.365306 C32.5933358,173.365306 26.6780726,173.150257 25.4500501,174.841127 C23.0891337,178.094679 24.3214802,184.708042 24.3214802,184.708042 C24.3214802,184.708042 25.0652121,187.445056 26.4705195,188.679264 C27.6553018,189.723723 29.8302852,188.939852 29.8302852,188.939852 C29.8302852,188.939852 33.7435259,187.91774 37.9162079,187.03014 C43.5720298,185.8284 45.9934825,185.42782 45.9934825,185.42782 L51.9433379,183.815803 L48.3068347,173.179774 Z M138.553514,173.179774 L143.539113,173.503611 C145.088847,173.585908 146.642026,173.585908 148.191762,173.503611 C151.387215,173.370787 154.353494,173.366149 154.353494,173.366149 C154.353494,173.366149 160.299025,173.150257 161.535696,174.848716 C163.909584,178.116605 162.66859,184.760749 162.66859,184.760749 C162.66859,184.760749 161.920534,187.509571 160.510903,188.749682 C159.317472,189.798358 157.133841,189.011534 157.133841,189.011534 C157.133841,189.011534 153.19898,187.984363 149.000354,187.092968 C143.314264,185.886168 140.879839,185.483059 140.879839,185.483059 L134.895392,183.864294 L138.553514,173.179774 Z"></path>
                <path fill="#483029" id="电脑" d="M58.1532796,84.4603497 L130.163267,84.4603497 C132.369648,84.4603497 134.158273,86.1251607 134.158273,88.1788091 L134.158273,140.46035 L54.1582734,140.46035 L54.1582734,88.1788091 C54.1582734,86.1251607 55.9468986,84.4603497 58.1532796,84.4603497 Z M55.2594817,140.46035 L133.057064,140.46035 C134.16502,140.46035 135.188812,141.154587 135.74279,142.281551 C136.296768,143.408514 136.296768,144.796991 135.74279,145.923953 C135.188812,147.050917 134.16502,147.745155 133.057064,147.745155 L55.2594817,147.745155 C53.5467316,147.745155 52.1582734,146.114396 52.1582734,144.102753 C52.1582734,142.091109 53.5467316,140.46035 55.2594817,140.46035 L55.2594817,140.46035 Z"></path>
            </g>
        </g>
    </g>
</svg>