<svg xmlns:xlink="http://www.w3.org/1999/xlink" xmlns="http://www.w3.org/2000/svg" version="1.1" viewBox="0 0 1024 1024" height="1024px" width="1024px">
    <title>404</title>
    <defs>
        <linearGradient id="linearGradient-1" y2="44.0501254%" x2="50%" y1="-29.88559%" x1="50%">
            <stop offset="0%" stop-color="#CFDFFA"></stop>
            <stop offset="100%" stop-opacity="0" stop-color="#EAF0FC"></stop>
        </linearGradient>
        <linearGradient id="linearGradient-2" y2="69.8138427%" x2="53.6226986%" y1="33.7558964%" x1="50%">
            <stop offset="0%" stop-color="#CFDFFA"></stop>
            <stop offset="100%" stop-opacity="0" stop-color="#EAF0FC"></stop>
        </linearGradient>
        <linearGradient id="linearGradient-3" y2="66.490191%" x2="53.6226986%" y1="36.480746%" x1="50%">
            <stop offset="0%" stop-color="#CFDFFA"></stop>
            <stop offset="100%" stop-opacity="0" stop-color="#EAF0FC"></stop>
        </linearGradient>
        <linearGradient id="linearGradient-4" y2="100%" x2="57.2835812%" y1="11.4973736%" x1="50%">
            <stop offset="0%" stop-color="#BFD4FA"></stop>
            <stop offset="100%" stop-color="#5792F0"></stop>
        </linearGradient>
        <linearGradient id="linearGradient-5" y2="131.881015%" x2="51.9409801%" y1="11.4973736%" x1="50%">
            <stop offset="0%" stop-color="#BFD4FA"></stop>
            <stop offset="100%" stop-color="#5792F0"></stop>
        </linearGradient>
        <linearGradient id="linearGradient-6" y2="128.463068%" x2="74.2827921%" y1="13.1045829%" x1="50%">
            <stop offset="0%" stop-color="#BFD4FA"></stop>
            <stop offset="100%" stop-color="#5792F0"></stop>
        </linearGradient>
        <linearGradient id="linearGradient-7" y2="131.881015%" x2="54.075228%" y1="11.4973736%" x1="50%">
            <stop offset="0%" stop-color="#BFD4FA"></stop>
            <stop offset="100%" stop-color="#5792F0"></stop>
        </linearGradient>
        <linearGradient id="linearGradient-8" y2="131.881015%" x2="51.9804806%" y1="11.4973736%" x1="50%">
            <stop offset="0%" stop-color="#BFD4FA"></stop>
            <stop offset="100%" stop-color="#5792F0"></stop>
        </linearGradient>
        <linearGradient id="linearGradient-9" y2="131.881015%" x2="55.3668229%" y1="11.4973736%" x1="50%">
            <stop offset="0%" stop-color="#BFD4FA"></stop>
            <stop offset="100%" stop-color="#5792F0"></stop>
        </linearGradient>
        <linearGradient id="linearGradient-10" y2="53.7005865%" x2="74.2827921%" y1="48.259886%" x1="50%">
            <stop offset="0%" stop-color="#BFD4FA"></stop>
            <stop offset="100%" stop-color="#5792F0"></stop>
        </linearGradient>
        <linearGradient id="linearGradient-11" y2="191.726229%" x2="53.9888057%" y1="-31.010887%" x1="46.534673%">
            <stop offset="0%" stop-color="#BFD4FA"></stop>
            <stop offset="100%" stop-color="#5792F0"></stop>
        </linearGradient>
        <linearGradient id="linearGradient-12" y2="343.212805%" x2="135.41083%" y1="34.4664365%" x1="50%">
            <stop offset="0%" stop-color="#BFD4FA"></stop>
            <stop offset="100%" stop-color="#5792F0"></stop>
        </linearGradient>
        <linearGradient id="linearGradient-13" y2="64.9763736%" x2="74.2827921%" y1="42.9577117%" x1="50%">
            <stop offset="0%" stop-color="#BFD4FA"></stop>
            <stop offset="100%" stop-color="#5792F0"></stop>
        </linearGradient>
        <linearGradient id="linearGradient-14" y2="78.3270459%" x2="121.162449%" y1="40.8547949%" x1="17.9232767%">
            <stop offset="0%" stop-color="#BFD4FA"></stop>
            <stop offset="100%" stop-color="#5792F0"></stop>
        </linearGradient>
        <linearGradient id="linearGradient-15" y2="62.1864597%" x2="66.9811616%" y1="18.0466164%" x1="7.03701641%">
            <stop offset="0%" stop-color="#5792F0"></stop>
            <stop offset="100%" stop-color="#BFD4FA"></stop>
        </linearGradient>
        <linearGradient id="linearGradient-16" y2="93.8707843%" x2="53.890131%" y1="-91.6326561%" x1="59.0785565%">
            <stop offset="0%" stop-color="#5792F0"></stop>
            <stop offset="100%" stop-opacity="0" stop-color="#BFD4FA"></stop>
        </linearGradient>
        <linearGradient id="linearGradient-17" y2="191.726229%" x2="85.8992509%" y1="-31.010887%" x1="18.8120566%">
            <stop offset="0%" stop-color="#BFD4FA"></stop>
            <stop offset="100%" stop-color="#5792F0"></stop>
        </linearGradient>
        <linearGradient id="linearGradient-18" y2="91.128483%" x2="192.425043%" y1="27.1630333%" x1="17.0073319%">
            <stop offset="0%" stop-color="#BFD4FA"></stop>
            <stop offset="100%" stop-color="#5D96F1"></stop>
        </linearGradient>
        <linearGradient id="linearGradient-19" y2="100%" x2="68.7034885%" y1="-31.010887%" x1="36.663471%">
            <stop offset="0%" stop-color="#BFD4FA"></stop>
            <stop offset="100%" stop-color="#5792F0"></stop>
        </linearGradient>
        <linearGradient id="linearGradient-20" y2="100%" x2="68.7032283%" y1="-31.010887%" x1="36.6636566%">
            <stop offset="0%" stop-color="#BFD4FA"></stop>
            <stop offset="100%" stop-color="#5792F0"></stop>
        </linearGradient>
        <linearGradient id="linearGradient-21" y2="100%" x2="68.1091749%" y1="-31.010887%" x1="37.0872466%">
            <stop offset="0%" stop-color="#BFD4FA"></stop>
            <stop offset="100%" stop-color="#5792F0"></stop>
        </linearGradient>
        <linearGradient id="linearGradient-22" y2="100%" x2="93.6504215%" y1="0%" x1="-38.7117061%">
            <stop offset="0%" stop-color="#BFD4FA"></stop>
            <stop offset="100%" stop-color="#5792F0"></stop>
        </linearGradient>
        <path id="path-23" d="M20.7542509,0 C14.216062,0 9.05749099,2.09854902 5.33852118,6.41556414 C1.73951814,10.4927451 0,15.7690969 0,22.3045781 C0,28.7801008 1.73951814,34.0564527 5.33852118,38.1336336 C9.05749099,42.3307316 14.216062,44.4892392 20.7542509,44.4892392 C27.2324564,44.4892392 32.3910274,42.3906902 36.1699806,38.1935922 C39.7689836,34.1164112 41.5684851,28.8400594 41.5684851,22.3045781 C41.5684851,15.7091384 39.7689836,10.372828 36.1699806,6.3556056 C32.3910274,2.09854902 27.2324564,0 20.7542509,0 Z M20.7542509,5.75602017 C25.3129881,5.75602017 28.8520077,7.19502521 31.3113265,10.1929524 C33.7106618,13.130921 34.9703129,17.1481434 34.9703129,22.3045781 C34.9703129,27.4010543 33.7106618,31.4182767 31.3113265,34.2962868 C28.8520077,37.2342555 25.3129881,38.733219 20.7542509,38.733219 C16.1955137,38.733219 12.656494,37.1742969 10.1371919,34.1763697 C7.73785654,31.2384011 6.53818886,27.2811373 6.53818886,22.3045781 C6.53818886,17.2680605 7.73785654,13.3107966 10.1371919,10.372828 C12.656494,7.25498375 16.1955137,5.75602017 20.7542509,5.75602017 Z"></path>
        <linearGradient id="linearGradient-24" y2="100%" x2="94.8576153%" y1="0%" x1="-41.1651124%">
            <stop offset="0%" stop-color="#BFD4FA"></stop>
            <stop offset="100%" stop-color="#5792F0"></stop>
        </linearGradient>
        <path id="path-25" d="M61.842869,11.8118331 C57.164165,11.8118331 53.3852118,13.3707552 50.5659928,16.4885994 C47.7467737,19.5464852 46.3671559,23.4437905 46.3671559,28.1805154 C46.3671559,32.8572818 47.7467737,36.7545871 50.5060094,39.7525143 C53.3852118,42.8703585 57.164165,44.4892392 61.842869,44.4892392 C66.5215729,44.4892392 70.3005261,42.8703585 73.1797285,39.7525143 C75.9389642,36.7545871 77.318582,32.8572818 77.318582,28.1805154 C77.318582,23.4437905 75.8789808,19.5464852 73.1197452,16.4885994 C70.3005261,13.3707552 66.5215729,11.8118331 61.842869,11.8118331 Z M61.842869,17.0282263 C64.7820548,17.0282263 67.0614234,18.1674387 68.7409581,20.5058218 C70.1805593,22.4844538 70.9003599,25.0626711 70.9003599,28.1805154 C70.9003599,31.2384011 70.1805593,33.7566599 68.7409581,35.7952504 C67.0614234,38.0736751 64.7820548,39.2728459 61.842869,39.2728459 C58.9036831,39.2728459 56.6243145,38.0736751 55.0047632,35.7952504 C53.565162,33.8166185 52.9053447,31.2983597 52.9053447,28.1805154 C52.9053447,25.0626711 53.565162,22.4844538 55.0047632,20.5058218 C56.6243145,18.1674387 58.9036831,17.0282263 61.842869,17.0282263 Z"></path>
        <linearGradient id="linearGradient-26" y2="100%" x2="73.3525017%" y1="0%" x1="2.54020019%">
            <stop offset="0%" stop-color="#BFD4FA"></stop>
            <stop offset="100%" stop-color="#5792F0"></stop>
        </linearGradient>
        <path id="path-27" d="M98.9126003,11.8118331 C94.7137634,11.8118331 91.4746607,13.3107966 89.3152588,16.3686824 L89.3152588,12.6512527 L83.3769038,12.6512527 L83.3769038,55.5216112 L89.7351425,55.5216112 L89.7351425,39.0929703 C92.2544447,42.6904829 95.3735806,44.4892392 99.2125172,44.4892392 C103.651288,44.4892392 107.190307,42.8703585 109.709609,39.6325972 C112.048961,36.63467 113.248629,32.8572818 113.248629,28.3004325 C113.248629,23.503749 112.048961,19.6664022 109.649626,16.6684751 C107.010357,13.4307137 103.471337,11.8118331 98.9126003,11.8118331 Z M97.9528662,16.9682678 C101.072002,16.9682678 103.351371,18.0475216 104.850955,20.3259462 C106.050623,22.2446196 106.71044,24.8827955 106.71044,28.3004325 C106.71044,31.7180695 105.99064,34.3562454 104.671005,36.2749188 C103.171421,38.3135092 100.892052,39.3328045 97.772916,39.3328045 C95.3735806,39.3328045 93.4541123,38.3734678 92.0145111,36.5147529 C90.3349764,34.4761625 89.5551924,31.778028 89.5551924,28.4803081 L89.5551924,27.9406812 C89.5551924,24.7628784 90.2150096,22.1846611 91.5346441,20.2659877 C93.0342287,18.0475216 95.1936305,16.9682678 97.9528662,16.9682678 Z"></path>
        <linearGradient id="linearGradient-28" y2="100%" x2="85.6494179%" y1="0%" x1="-22.4510914%">
            <stop offset="0%" stop-color="#BFD4FA"></stop>
            <stop offset="100%" stop-color="#5792F0"></stop>
        </linearGradient>
        <path id="path-29" d="M130.823761,11.8118331 C127.104791,11.8118331 124.045638,12.5912941 121.706286,14.2101748 C119.366934,15.7690969 118.22725,17.987563 118.22725,20.8056146 C118.22725,23.4437905 119.426918,25.5423395 121.826253,27.0413031 C123.265854,28.0006398 125.84514,28.9000179 129.504126,29.7394375 C132.683246,30.4589401 134.782664,31.0585255 135.742398,31.5381938 C137.5419,32.3776134 138.501634,33.5767843 138.501634,35.0757479 C138.501634,37.8338409 135.982332,39.2728459 131.063694,39.2728459 C128.664359,39.2728459 126.984824,38.8531361 125.905123,38.0736751 C124.825422,37.2342555 124.045638,35.7352919 123.685738,33.6367429 L117.447466,33.6367429 C118.167267,40.8317681 122.726004,44.4892392 131.243644,44.4892392 C140.421102,44.4892392 145.039823,41.1915193 145.039823,34.6560381 C145.039823,31.8979451 143.780172,29.7394375 141.320853,28.1805154 C139.641318,27.1012616 137.002049,26.0819664 133.46303,25.2425468 C130.343894,24.4630857 128.304458,23.8635003 127.224758,23.3838319 C125.545223,22.6043709 124.705455,21.7049927 124.705455,20.6257389 C124.705455,19.4265681 125.245306,18.4672314 126.38499,17.8676459 C127.344724,17.2680605 128.784326,17.0282263 130.703794,17.0282263 C132.863196,17.0282263 134.54273,17.3879776 135.622431,18.1074801 C136.642149,18.7670241 137.361949,19.9062364 137.841817,21.5850756 L144.020105,21.5850756 C143.300304,15.0495944 138.861534,11.8118331 130.823761,11.8118331 Z"></path>
        <linearGradient id="linearGradient-30" y2="51.5418193%" x2="100%" y1="48.4581807%" x1="-51.6160932%">
            <stop offset="0%" stop-color="#BFD4FA"></stop>
            <stop offset="100%" stop-color="#5792F0"></stop>
        </linearGradient>
        <path id="path-31" d="M156.796566,35.0757479 C155.596898,35.0757479 154.577181,35.4354992 153.737413,36.2749188 C152.837663,37.0543798 152.417779,38.0736751 152.417779,39.3328045 C152.417779,40.5319753 152.837663,41.5512706 153.737413,42.3906902 C154.577181,43.2301098 155.596898,43.6498196 156.796566,43.6498196 C157.996234,43.6498196 159.075934,43.2301098 159.975685,42.4506487 C160.815453,41.6112291 161.235336,40.5919339 161.235336,39.3328045 C161.235336,38.0736751 160.815453,37.0543798 159.975685,36.2749188 C159.135918,35.4354992 158.056217,35.0757479 156.796566,35.0757479 Z M176.831016,35.0757479 C175.631348,35.0757479 174.611631,35.4354992 173.771864,36.2749188 C172.872113,37.0543798 172.452229,38.0736751 172.452229,39.3328045 C172.452229,40.5319753 172.872113,41.5512706 173.771864,42.3906902 C174.611631,43.2301098 175.631348,43.6498196 176.831016,43.6498196 C178.030684,43.6498196 179.110385,43.2301098 180.010136,42.4506487 C180.849903,41.6112291 181.269787,40.5919339 181.269787,39.3328045 C181.269787,38.0736751 180.849903,37.0543798 180.010136,36.2749188 C179.170368,35.4354992 178.090667,35.0757479 176.831016,35.0757479 Z M196.805483,35.0757479 C195.605815,35.0757479 194.526114,35.4354992 193.686347,36.2749188 C192.84658,37.0543798 192.426696,38.0736751 192.426696,39.3328045 C192.426696,40.5319753 192.84658,41.5512706 193.686347,42.3906902 C194.526114,43.2301098 195.605815,43.6498196 196.805483,43.6498196 C198.005151,43.6498196 199.084852,43.2301098 199.924619,42.4506487 C200.764386,41.6112291 201.244253,40.5919339 201.244253,39.3328045 C201.244253,38.0736751 200.82437,37.0543798 199.984602,36.2749188 C199.144835,35.4354992 198.065134,35.0757479 196.805483,35.0757479 Z"></path>
        <linearGradient id="linearGradient-32" y2="100%" x2="50%" y1="-19.0038784%" x1="50%">
            <stop offset="0%" stop-color="#FFCDA5"></stop>
            <stop offset="100%" stop-color="#FFE8D1"></stop>
        </linearGradient>
        <linearGradient id="linearGradient-33" y2="100%" x2="50%" y1="0%" x1="50%">
            <stop offset="0%" stop-color="#FFF2DF"></stop>
            <stop offset="100%" stop-color="#FEE0BC"></stop>
        </linearGradient>
        <linearGradient id="linearGradient-34" y2="73.7681415%" x2="100%" y1="11.4904354%" x1="14.3474826%">
            <stop offset="0%" stop-color="#BFD4FA"></stop>
            <stop offset="100%" stop-color="#5792F0"></stop>
        </linearGradient>
        <linearGradient id="linearGradient-35" y2="100%" x2="59.0573615%" y1="-31.010887%" x1="43.5416452%">
            <stop offset="0%" stop-color="#BFD4FA"></stop>
            <stop offset="100%" stop-color="#5792F0"></stop>
        </linearGradient>
        <linearGradient id="linearGradient-36" y2="100%" x2="50%" y1="0%" x1="50%">
            <stop offset="0%" stop-color="#FEE127"></stop>
            <stop offset="100%" stop-color="#F9AB21"></stop>
        </linearGradient>
    </defs>
    <g fill-rule="evenodd" fill="none" stroke-width="1" stroke="none" id="404">
        <rect height="1024" width="1024" y="0" x="0" id="矩形"></rect>
        <g transform="translate(32.000000, 133.000000)" id="编组-2">
            <g transform="translate(0.000000, 31.904000)" id="背景">
                <ellipse ry="249.942824" rx="480" cy="765.824811" cx="480" fill="url(#linearGradient-1)" id="椭圆形"></ellipse>
                <path fill="url(#linearGradient-2)" id="云" d="M814,116.185543 C814,130.57619 800.181818,142.088708 782.727273,142.088708 L686,142.088708 C668.545455,140.937456 654,130.000564 654,115.034291 C654,105.248651 660.545455,96.6142623 670,92.0092552 C669.272727,90.2823775 668.545455,88.5554998 668.545455,86.8286221 C668.545455,77.0429818 678,68.4085934 690.363636,68.4085934 C695.454545,68.4085934 699.818182,70.1354711 703.454545,72.4379747 C712.181818,59.1985791 728.181818,49.9885647 747.090909,49.9885647 C773.272727,49.9885647 794.363636,67.8329675 794.363636,89.7067516 L794.363636,92.0092552 C806,96.0386364 814,105.248651 814,116.185543 Z"></path>
                <path fill="url(#linearGradient-3)" id="云" d="M166.222222,0 C190.895196,0 211.885233,15.7649204 219.664402,37.7690085 L256.5,37.7691378 C266.164983,37.7691378 274,45.6041547 274,55.2691378 L274,98.0291273 C274,107.69411 266.164983,115.529127 256.5,115.529127 L78.1666667,115.529127 C68.5016835,115.529127 60.6666667,107.69411 60.6666667,98.0291273 L60.6669251,85.6271532 C56.4406892,78.8273509 54,70.8026328 54,62.2079916 C54,37.6676166 73.8984556,17.7737119 98.4444444,17.7737119 C106.377692,17.7737119 113.825468,19.8517855 120.272891,23.4931689 C130.565092,9.26073085 147.31193,0 166.222222,0 Z"></path>
                <g transform="translate(170.000000, 569.869638)" id="草">
                    <ellipse ry="3.99908518" rx="12.8" cy="77.9821609" cx="26.8" fill="#CCDCF6" id="椭圆形"></ellipse>
                    <path fill-rule="nonzero" fill="url(#linearGradient-4)" id="路径-42" d="M13.2096985,76.4159889 C14.9527214,47.3154261 22.2548023,30.4721813 35.1159413,25.8862543 C40.1793835,25.2103862 45.8226773,24.1941696 41.8878028,30.7547597 C37.9529282,37.3153499 27.4160559,34.7621901 16.879533,76.398643 C15.9265298,78.1788087 14.7032516,78.1845907 13.2096985,76.4159889 Z"></path>
                    <path fill-rule="nonzero" fill="url(#linearGradient-5)" id="路径-41" d="M12.9692534,76.0514062 C9.54744327,48.870912 6.74680699,31.7776318 4.56734456,24.7715657 C1.2981509,14.2624665 -5.66257226,-5.96260501 8.82439601,1.68905327 C23.3113643,9.34071155 25.0241679,48.5900145 18.327685,72.476418 C16.2462776,78.5207544 14.4601337,79.7124172 12.9692534,76.0514062 Z"></path>
                </g>
                <g fill-rule="nonzero" transform="translate(686.120225, 515.308823)" id="草">
                    <path fill="url(#linearGradient-6)" id="路径-43" d="M65.8576891,95.4211938 C63.3395468,83.9614485 55.9856639,75.95068 43.7960405,71.3888884 C29.8759357,66.9152717 22.2494886,61.5976132 30.9599814,57.7418178 C38.3155159,57.1572539 54.0022982,51.4301566 65.8576891,85.6387097 C66.6827635,88.9536929 66.6827635,92.2145209 65.8576891,95.4211938 Z"></path>
                    <path fill="url(#linearGradient-7)" id="路径-44" d="M66.4764949,97.2388629 C59.1454779,69.8800336 50.8174439,49.9056605 41.4923928,37.3157436 C34.6452589,28.7122731 35.1250476,16.4013521 41.4923928,13.6187573 C48.0100381,12.8941221 60.0222617,11.7733445 69.0669112,58.9238545 C69.6381527,62.167053 72.8251647,81.1404341 69.0669112,93.3853174 C68.5106318,95.065828 67.6471596,96.3503432 66.4764949,97.2388629 Z"></path>
                    <path fill="url(#linearGradient-8)" id="路径-45" d="M68.1696321,91.0595779 C71.4853494,78.8174329 71.0643832,62.8442548 66.9067333,43.1400436 C60.5471905,24.0385715 49.6921744,0.541672654 69.4774519,0 C77.5044316,1.09129904 87.1972186,9.50326091 83.5347739,51.4275041 C81.3029234,68.3447739 77.4213217,78.3386156 73.3477064,91.0595779 C71.9266832,91.8527766 70.2006584,91.8527766 68.1696321,91.0595779 Z"></path>
                    <path fill="url(#linearGradient-9)" id="路径-46" d="M72.0427224,95.8141128 C70.7154818,61.1981062 77.0522244,36.3556793 91.0529503,21.2868321 C94.833726,16.2514238 109.217459,11.5354106 109.163159,27.3201462 C107.661554,34.107483 104.448437,48.5975992 85.9202741,70.7052501 C79.8162941,78.6845418 75.8046094,90.3445049 75.7655073,93.0783341 C75.7394392,94.9008868 74.4985109,95.812813 72.0427224,95.8141128 Z"></path>
                    <path fill="url(#linearGradient-10)" id="路径-47" d="M0,100.384747 C13.8643816,97.8012605 21.5103995,95.6080985 22.9380537,93.805261 C25.0795349,91.1010048 43.9450099,79.4898432 55.7094426,89.270088 C58.2703723,85.9796136 66.4835238,83.4200407 71.1837342,89.270088 C73.3341085,80.0341011 86.7490663,74.1190722 92.583369,75.07733 C99.1537088,74.5632607 118.55034,74.7771445 120,100.384747 C114.707841,100.507929 74.7078414,100.507929 0,100.384747 Z"></path>
                </g>
            </g>
            <g fill-rule="nonzero" transform="translate(13.996772, -0.000000)" id="404">
                <g transform="translate(376.441780, 452.650888) rotate(-20.000000) translate(-376.441780, -452.650888) translate(116.765148, 65.464439)" id="编组">
                    <polygon points="259.895043 7.99447245 270.279451 7.99447245 275.471655 74.6114189 254.702839 74.6114189" fill="url(#linearGradient-11)" id="路径"></polygon>
                    <rect rx="72.6908554" height="155.439542" width="145.381711" y="52.4057701" x="192.396391" fill="url(#linearGradient-12)" id="矩形"></rect>
                    <ellipse ry="66.6169464" rx="155.766119" cy="155.921667" cx="267.82265" fill="url(#linearGradient-13)" id="椭圆形"></ellipse>
                    <ellipse ry="66.6169464" rx="155.766119" cy="163.434014" cx="265.087247" fill="url(#linearGradient-14)" id="椭圆形备份"></ellipse>
                    <ellipse ry="33.3084732" rx="93.4596712" cy="168.985426" cx="265.087247" fill="url(#linearGradient-15)" id="椭圆形"></ellipse>
                    <polygon points="171.627575 163.434014 358.546918 163.434014 519.353264 774.372899 -2.26472741e-13 691.574846" opacity="0.3" fill="url(#linearGradient-16)" id="路径"></polygon>
                    <ellipse ry="7.99447245" rx="7.47718418" cy="7.99447245" cx="265.087247" fill="url(#linearGradient-17)" id="椭圆形"></ellipse>
                </g>
                <path fill="url(#linearGradient-18)" id="形状结合" d="M490.53972,155.845549 L490.53972,155.718779 C483.029717,134.559403 458.592039,124.628283 437.842668,127.677569 C453.220493,118.117706 478.613066,115.568711 490.535485,130.226564 L490.535485,130.353335 C502.455787,115.822252 527.969045,118.244477 543.228302,127.80434 C522.47893,124.872769 498.045487,134.822 490.535485,155.845549 L490.53972,155.845549 Z M524.709852,91.6446712 L524.709852,91.5641757 C520.296479,79.1068067 505.901093,73.2445154 493.68903,75.0542758 C502.744233,69.4251438 517.692588,67.9262625 524.712448,76.5559328 L524.712448,76.6308769 C531.721923,68.0761507 546.750758,69.5028636 555.735867,75.1292199 C543.534187,73.4027307 529.136206,79.2566948 524.712448,91.6391198 L524.709852,91.6446712 Z M609.150933,81.2557845 L609.150933,81.2030461 C606.084937,72.5678244 596.113309,68.5125178 587.647421,69.7588098 C593.922199,65.8589428 604.285838,64.818053 609.150933,70.7996996 L609.150933,70.8524381 C614.016028,64.9235298 624.426397,65.9116812 630.654446,69.8115483 C622.188557,68.6152189 612.222122,72.6733013 609.150933,81.2557845 L609.150933,81.2557845 Z M565.0172,37.4007253 L565.0172,37.3479869 C561.951203,28.7127652 551.979575,24.6574586 543.513687,25.9037507 C549.788465,22.0038836 560.152104,20.9629938 565.0172,26.9446405 L565.0172,26.9973789 C569.882295,21.0684706 580.292664,22.056622 586.520712,25.9564891 C578.054824,24.7601598 568.088388,28.8182421 565.0172,37.4007253 L565.0172,37.4007253 Z M683.033399,86.1931844 L683.033399,86.1571002 C680.909788,80.1726779 673.993772,77.3581119 668.126582,78.2241322 C672.477649,75.5205944 679.661063,74.7989108 683.033399,78.9458158 L683.033399,78.9818999 C686.408332,74.8710792 693.622899,75.5566786 697.940217,78.2602164 C692.073026,77.4275045 685.157011,80.2448462 683.033399,86.1931844 Z"></path>
                <path transform="translate(309.844684, 319.823336) rotate(15.000000) translate(-309.844684, -319.823336)" fill="url(#linearGradient-19)" id="4" d="M326.413833,357.053959 L326.415764,338.413986 L332.615047,338.413344 L332.616042,328.800583 L326.41676,328.801225 L326.421546,282.591657 L316.219577,282.592714 L316.214791,328.802281 L301.961322,328.803757 C300.822346,328.803875 299.894923,328.527462 299.179053,327.974517 C298.235411,327.193883 297.763644,326.283078 297.763752,325.242102 C297.763789,324.884267 297.845223,324.119792 298.008055,322.948677 L298.008055,322.948677 L304.162704,282.593962 L294.058362,282.595008 L287.219968,326.414292 C287.122275,327.064912 287.073327,327.715527 287.073327,328.366137 C287.073327,330.513149 287.495972,332.253487 288.34193,333.587149 C290.391753,336.807456 293.141399,338.417431 296.590869,338.417074 L296.590869,338.417074 L316.213795,338.415042 L316.211864,357.055016 L326.413833,357.053959 Z"></path>
                <path transform="translate(346.198426, 494.188080) rotate(-15.000000) translate(-346.198426, -494.188080)" fill="url(#linearGradient-20)" id="4" d="M369.402795,546.314037 L369.400092,520.218074 L378.079088,520.218973 L378.077694,506.761107 L369.398698,506.760209 L369.391998,442.066814 L355.109241,442.065336 L355.115942,506.75873 L335.161086,506.756664 C333.56652,506.756499 332.268047,506.369252 331.265668,505.594922 C329.944343,504.501761 329.283605,503.226497 329.283454,501.769131 C329.283402,501.268161 329.397189,500.19792 329.624814,498.558406 L329.624814,498.558406 L338.22962,442.063588 L324.083541,442.062123 L314.522497,503.407139 C314.385915,504.317979 314.317765,505.228826 314.317765,506.13968 C314.317765,509.145497 314.910596,511.582093 316.095324,513.449466 C318.96601,517.958489 322.815982,520.213251 327.645239,520.213751 L327.645239,520.213751 L355.117336,520.216596 L355.120038,546.312558 L369.402795,546.314037 Z"></path>
                <path transform="translate(394.123665, 363.183411) rotate(15.000000) translate(-394.123665, -363.183411)" fill="url(#linearGradient-21)" id="0" d="M407.332897,408.005936 C408.934016,408.005936 410.749919,407.537509 412.780606,406.600657 C414.49888,405.819947 415.924267,404.863577 417.056766,403.731547 C419.751332,401.038097 421.098615,397.056475 421.098615,391.786681 L421.098615,391.786681 L421.098615,334.463035 C421.098615,330.169129 419.770858,326.382684 417.115343,323.103701 C414.537932,319.941825 410.515609,318.360887 405.048373,318.360887 L405.048373,318.360887 L381.851674,318.360887 C377.868402,318.360887 374.431854,319.863754 371.54203,322.869488 C368.613154,325.953294 367.148716,329.993469 367.148716,334.990014 L367.148716,334.990014 L367.148716,392.079448 C367.148716,396.919851 368.574102,400.725813 371.424875,403.497334 C374.549009,406.503068 378.473703,408.005936 383.198957,408.005936 L383.198957,408.005936 L407.332897,408.005936 Z M402.646695,396.470942 L385.307748,396.470942 C381.363528,396.470942 379.391418,394.40206 379.391418,390.264296 L379.391418,390.264296 L379.391418,334.521588 C379.391418,333.194381 379.879564,332.062351 380.855856,331.125499 C381.754045,330.305753 383.023224,329.89588 384.663395,329.89588 L384.663395,329.89588 L403.759668,329.89588 C407.157164,329.89588 408.855912,331.769585 408.855912,335.516993 L408.855912,335.516993 L408.855912,390.264296 C408.855912,392.528356 408.465396,394.109294 407.684362,395.007111 C406.786173,395.982999 405.106951,396.470942 402.646695,396.470942 L402.646695,396.470942 Z"></path>
                <g transform="translate(554.551505, 208.212843)" id="Oops…">
                    <g id="形状">
                        <use xlink:href="#path-23" fill="#909AA9"></use>
                        <use xlink:href="#path-23" fill="url(#linearGradient-22)"></use>
                    </g>
                    <g id="形状">
                        <use xlink:href="#path-25" fill="#909AA9"></use>
                        <use xlink:href="#path-25" fill="url(#linearGradient-24)"></use>
                    </g>
                    <g id="形状">
                        <use xlink:href="#path-27" fill="#909AA9"></use>
                        <use xlink:href="#path-27" fill="url(#linearGradient-26)"></use>
                    </g>
                    <g id="路径">
                        <use xlink:href="#path-29" fill="#909AA9"></use>
                        <use xlink:href="#path-29" fill="url(#linearGradient-28)"></use>
                    </g>
                    <g id="形状">
                        <use xlink:href="#path-31" fill="#909AA9"></use>
                        <use xlink:href="#path-31" fill="url(#linearGradient-30)"></use>
                    </g>
                </g>
            </g>
            <g transform="translate(515.845226, 458.128067)" id="人物">
                <ellipse ry="15.9944253" rx="49.8399529" cy="245.914288" cx="64.0589209" fill="#CCDCF6" id="椭圆形"></ellipse>
                <rect height="15.9944253" width="15.9487849" y="57.9797916" x="50.727388" fill="url(#linearGradient-32)" id="矩形"></rect>
                <ellipse ry="4.99625733" rx="2.99160225" cy="44.9843211" cx="79.0109068" transform="translate(79.010907, 44.984321) rotate(22.000000) translate(-79.010907, -44.984321)" fill="#FEE0BC" id="椭圆形"></ellipse>
                <ellipse ry="4.99608138" rx="2.99170816" cy="44.9843211" cx="37.1453463" transform="translate(37.145346, 44.984321) scale(-1, 1) rotate(23.000000) translate(-37.145346, -44.984321)" fill="#FEE0BC" id="椭圆形备份-2"></ellipse>
                <ellipse ry="19.9930316" rx="19.9359812" cy="41.9853663" cx="58.7017805" fill="url(#linearGradient-33)" id="椭圆形"></ellipse>
                <path fill-rule="nonzero" fill="url(#linearGradient-34)" id="路径-52" d="M48.7381669,234.35368 L47.9115257,239.771414 C44.5449911,239.876998 40.8839329,240.86941 36.928351,242.748648 C34.3829479,244.386417 34.269659,245.128492 34.1877155,246.538684 C34.1330865,247.478811 41.3248605,247.478811 55.7630375,246.538684 L55.7630375,232.368124 L48.7381669,234.35368 Z"></path>
                <path transform="translate(82.853586, 239.805952) scale(-1, 1) translate(-82.853586, -239.805952)" fill-rule="nonzero" fill="url(#linearGradient-34)" id="路径-52备份" d="M86.6165311,234.35368 L85.7898899,239.771414 C82.4233554,239.876998 78.7622971,240.86941 74.8067152,242.748648 C72.2613121,244.386417 72.1480232,245.128492 72.0660797,246.538684 C72.0114507,247.478811 79.2032247,247.478811 93.6414017,246.538684 L93.6414017,232.368124 L86.6165311,234.35368 Z"></path>
                <polygon points="41.0442149 135.369579 46.7984159 236.2555 58.0781265 236.096081 62.951311 142.97611 70.541497 236.056092 81.1465486 235.883259 83.98267 135.588023" fill-rule="nonzero" fill="url(#linearGradient-35)" id="路径-49"></polygon>
                <path fill="#FEE0BC" id="路径-50" d="M104.554537,93.3431196 C106.039246,92.1593723 107.579836,91.7018668 109.17631,91.970603 C110.25447,91.9951482 110.873542,91.7268736 111.033526,91.165779 C112.893721,90.8805907 113.637999,91.2434808 113.26636,92.2544493 C112.894721,93.2654179 112.427812,93.628308 111.865631,93.3431196 L114.426968,94.5204349 L116.861847,92.7960453 C119.875995,92.8313214 121.018974,93.8463612 120.290784,95.8411646 C119.028304,97.9254799 115.581024,100.53818 111.033526,98.3620479 C110.036303,97.6011972 109.129486,97.256744 108.313075,97.3286884 L104.554537,93.3431196 Z"></path>
                <path transform="translate(8.861155, 99.124607) scale(-1, 1) rotate(-19.000000) translate(-8.861155, -99.124607)" fill="#FEE0BC" id="路径-50备份" d="M0.884977559,97.3490215 C2.3711761,96.1643244 3.91263612,95.7056001 5.50935762,95.9728486 C6.5878237,95.9964367 7.20731918,95.7276978 7.36784407,95.166632 C9.22885363,94.8798913 9.97303865,95.242016 9.60039913,96.2530061 C9.22775961,97.2639963 8.76038958,97.627188 8.19828905,97.3425811 L10.7593686,98.5172839 L13.1965006,96.791271 C16.2115318,96.8238812 17.3539659,97.8376071 16.6238029,99.8324487 C15.3591098,101.917246 11.9084887,104.532192 7.36152288,102.360724 C6.36466606,101.600982 5.45787649,101.257432 4.64115417,101.330074 L0.884977559,97.3490215 Z"></path>
                <path fill="url(#linearGradient-36)" id="路径-48" d="M50.1489681,65.3387955 L60.0717247,71.8934574 L67.2588034,64.9489774 L88.8918851,73.0528611 L94.080231,100.639885 L104.429277,91.9679453 L111.339404,98.3142541 L95.3154853,122.449143 C90.7162418,127.364736 87.2908137,127.364736 85.0392009,122.449143 C84.5369084,119.583291 83.0938109,109.813166 80.7099085,93.138768 L85.3137548,136.51044 L39.7912791,136.981563 L42.9670278,93.1554705 C42.347642,113.012626 39.4102824,122.777184 34.1549491,122.449143 C30.3918836,121.446219 22.5810903,115.702921 10.7225693,105.21925 L13.7305209,97.1259824 L27.9595004,104.626693 L30.9232288,77.6960381 L50.1489681,65.3387955 Z"></path>
                <ellipse ry="6.99756105" rx="8.97119152" cy="6.99756105" cx="57.0813275" fill="#483029" id="椭圆形"></ellipse>
                <path fill="#483029" id="路径-51" d="M35.9375171,43.9846695 C49.7611951,36.4619521 57.2114641,30.2218699 58.288324,25.2644227 C60.6227024,31.991149 74.9491942,42.4090278 80.639131,42.3120271 C83.7870131,33.2085618 84.6582968,24.6387311 74.7172051,16.2818205 C64.7761133,7.92490984 53.3133019,7.87795149 40.7573109,16.2818205 C32.3154961,23.3980121 30.7088982,32.6322951 35.9375171,43.9846695 Z"></path>
            </g>
        </g>
    </g>
</svg>