<svg xmlns:xlink="http://www.w3.org/1999/xlink" xmlns="http://www.w3.org/2000/svg" version="1.1" viewBox="0 0 1024 1024" height="1024px" width="1024px">
    <title>暂无方向</title>
    <defs>
        <linearGradient id="linearGradient-1" y2="44.0501254%" x2="50%" y1="-29.88559%" x1="50%">
            <stop offset="0%" stop-color="#CFDFFA"></stop>
            <stop offset="100%" stop-opacity="0" stop-color="#EAF0FC"></stop>
        </linearGradient>
        <linearGradient id="linearGradient-2" y2="69.8229089%" x2="53.6226986%" y1="33.7484636%" x1="50%">
            <stop offset="0%" stop-color="#CFDFFA"></stop>
            <stop offset="100%" stop-opacity="0" stop-color="#EAF0FC"></stop>
        </linearGradient>
        <linearGradient id="linearGradient-3" y2="66.4977364%" x2="53.6226986%" y1="36.47456%" x1="50%">
            <stop offset="0%" stop-color="#CFDFFA"></stop>
            <stop offset="100%" stop-opacity="0" stop-color="#EAF0FC"></stop>
        </linearGradient>
        <linearGradient id="linearGradient-4" y2="100%" x2="57.28025%" y1="11.4973736%" x1="50%">
            <stop offset="0%" stop-color="#BFD4FA"></stop>
            <stop offset="100%" stop-color="#5792F0"></stop>
        </linearGradient>
        <linearGradient id="linearGradient-5" y2="131.881015%" x2="51.9400923%" y1="11.4973736%" x1="50%">
            <stop offset="0%" stop-color="#BFD4FA"></stop>
            <stop offset="100%" stop-color="#5792F0"></stop>
        </linearGradient>
        <linearGradient id="linearGradient-6" y2="128.49897%" x2="74.2827921%" y1="13.0877007%" x1="50%">
            <stop offset="0%" stop-color="#BFD4FA"></stop>
            <stop offset="100%" stop-color="#5792F0"></stop>
        </linearGradient>
        <linearGradient id="linearGradient-7" y2="131.881015%" x2="54.0733641%" y1="11.4973736%" x1="50%">
            <stop offset="0%" stop-color="#BFD4FA"></stop>
            <stop offset="100%" stop-color="#5792F0"></stop>
        </linearGradient>
        <linearGradient id="linearGradient-8" y2="131.881015%" x2="51.9795749%" y1="11.4973736%" x1="50%">
            <stop offset="0%" stop-color="#BFD4FA"></stop>
            <stop offset="100%" stop-color="#5792F0"></stop>
        </linearGradient>
        <linearGradient id="linearGradient-9" y2="131.881015%" x2="55.3643684%" y1="11.4973736%" x1="50%">
            <stop offset="0%" stop-color="#BFD4FA"></stop>
            <stop offset="100%" stop-color="#5792F0"></stop>
        </linearGradient>
        <linearGradient id="linearGradient-10" y2="53.7022797%" x2="74.2827921%" y1="48.2590898%" x1="50%">
            <stop offset="0%" stop-color="#BFD4FA"></stop>
            <stop offset="100%" stop-color="#5792F0"></stop>
        </linearGradient>
        <linearGradient id="linearGradient-11" y2="-11.5290622%" x2="49.8150632%" y1="150.023261%" x1="50.3328272%">
            <stop offset="0%" stop-color="#5792F0"></stop>
            <stop offset="100%" stop-color="#BFD4FA"></stop>
        </linearGradient>
        <linearGradient id="linearGradient-12" y2="18.0360437%" x2="22.3249327%" y1="77.7448649%" x1="106.744073%">
            <stop offset="0%" stop-color="#A2ABB9"></stop>
            <stop offset="100%" stop-color="#E7EAF0"></stop>
        </linearGradient>
        <linearGradient id="linearGradient-13" y2="-11.5290622%" x2="1.4971933%" y1="150.023261%" x1="137.289576%">
            <stop offset="0%" stop-color="#5792F0"></stop>
            <stop offset="100%" stop-color="#BFD4FA"></stop>
        </linearGradient>
        <linearGradient id="linearGradient-14" y2="15.1790611%" x2="-17.9385803%" y1="106.605834%" x1="172.267767%">
            <stop offset="0%" stop-color="#5792F0"></stop>
            <stop offset="100%" stop-color="#BFD4FA"></stop>
        </linearGradient>
        <linearGradient id="linearGradient-15" y2="19.9291679%" x2="-17.9385803%" y1="98.8839354%" x1="172.267767%">
            <stop offset="0%" stop-color="#5792F0"></stop>
            <stop offset="100%" stop-color="#BFD4FA"></stop>
        </linearGradient>
        <linearGradient id="linearGradient-16" y2="19.9291679%" x2="-17.9385803%" y1="98.8839354%" x1="172.267767%">
            <stop offset="0%" stop-color="#5792F0"></stop>
            <stop offset="100%" stop-color="#BFD4FA"></stop>
        </linearGradient>
        <linearGradient id="linearGradient-17" y2="45.0386616%" x2="-17.9385803%" y1="58.0652822%" x1="172.267767%">
            <stop offset="0%" stop-color="#5792F0"></stop>
            <stop offset="100%" stop-color="#BFD4FA"></stop>
        </linearGradient>
        <linearGradient id="linearGradient-18" y2="44.0818701%" x2="-82.5844011%" y1="55.7041557%" x1="172.267767%">
            <stop offset="0%" stop-color="#BFD4FA"></stop>
            <stop offset="100%" stop-color="#5792F0"></stop>
        </linearGradient>
        <linearGradient id="linearGradient-19" y2="46.4911027%" x2="-17.9385803%" y1="55.7041557%" x1="172.267767%">
            <stop offset="0%" stop-color="#5792F0"></stop>
            <stop offset="100%" stop-color="#BFD4FA"></stop>
        </linearGradient>
        <linearGradient id="linearGradient-20" y2="101.851828%" x2="7.28091586%" y1="31.2534816%" x1="87.9236244%">
            <stop offset="0%" stop-color="#5792F0"></stop>
            <stop offset="100%" stop-opacity="0.5" stop-color="#BFD4FA"></stop>
        </linearGradient>
        <linearGradient id="linearGradient-21" y2="30.1347242%" x2="-17.9385803%" y1="82.2935146%" x1="172.267767%">
            <stop offset="0%" stop-color="#5792F0"></stop>
            <stop offset="100%" stop-color="#BFD4FA"></stop>
        </linearGradient>
        <linearGradient id="linearGradient-22" y2="63.9265576%" x2="7.28091586%" y1="44.9649901%" x1="87.9236244%">
            <stop offset="0%" stop-color="#5792F0"></stop>
            <stop offset="100%" stop-opacity="0.5" stop-color="#BFD4FA"></stop>
        </linearGradient>
        <linearGradient id="linearGradient-23" y2="54.6474322%" x2="7.28091586%" y1="48.3197666%" x1="87.9236244%">
            <stop offset="0%" stop-color="#5792F0"></stop>
            <stop offset="100%" stop-opacity="0.5" stop-color="#BFD4FA"></stop>
        </linearGradient>
        <linearGradient id="linearGradient-24" y2="100%" x2="50%" y1="-19.0038784%" x1="50%">
            <stop offset="0%" stop-color="#FFCDA5"></stop>
            <stop offset="100%" stop-color="#FFE8D1"></stop>
        </linearGradient>
        <linearGradient id="linearGradient-25" y2="100%" x2="50%" y1="0%" x1="50%">
            <stop offset="0%" stop-color="#FFF2DF"></stop>
            <stop offset="100%" stop-color="#FEE0BC"></stop>
        </linearGradient>
        <linearGradient id="linearGradient-26" y2="100%" x2="50%" y1="0%" x1="50%">
            <stop offset="0%" stop-color="#FEE127"></stop>
            <stop offset="100%" stop-color="#F9AB21"></stop>
        </linearGradient>
        <linearGradient id="linearGradient-27" y2="55.5555556%" x2="100%" y1="44.4444444%" x1="-7.15035485%">
            <stop offset="0%" stop-color="#BFD4FA"></stop>
            <stop offset="100%" stop-color="#5792F0"></stop>
        </linearGradient>
    </defs>
    <g fill-rule="evenodd" fill="none" stroke-width="1" stroke="none" id="暂无方向">
        <rect height="1024" width="1024" y="0" x="0" id="矩形"></rect>
        <g transform="translate(32.000000, 149.000000)" id="编组-2">
            <g id="背景">
                <ellipse ry="250" rx="480" cy="766" cx="480" fill="url(#linearGradient-1)" id="椭圆形"></ellipse>
                <path fill="url(#linearGradient-2)" id="云" d="M814,116.212121 C814,130.606061 800.181818,142.121212 782.727273,142.121212 L686,142.121212 C668.545455,140.969697 654,130.030303 654,115.060606 C654,105.272727 660.545455,96.6363636 670,92.030303 C669.272727,90.3030303 668.545455,88.5757576 668.545455,86.8484848 C668.545455,77.0606061 678,68.4242424 690.363636,68.4242424 C695.454545,68.4242424 699.818182,70.1515152 703.454545,72.4545455 C712.181818,59.2121212 728.181818,50 747.090909,50 C773.272727,50 794.363636,67.8484848 794.363636,89.7272727 L794.363636,92.030303 C806,96.0606061 814,105.272727 814,116.212121 Z"></path>
                <path fill="url(#linearGradient-3)" id="云" d="M166.222222,0 C190.894883,0 211.8847,15.7681262 219.664106,37.7768098 L256.5,37.7777778 C266.164983,37.7777778 274,45.6127947 274,55.2777778 L274,98.0555556 C274,107.720539 266.164983,115.555556 256.5,115.555556 L78.1666667,115.555556 C68.5016835,115.555556 60.6666667,107.720539 60.6666667,98.0555556 L60.6669111,85.6467185 C56.4406838,78.8453656 54,70.81882 54,62.2222222 C54,37.6762333 73.8984556,17.7777778 98.4444444,17.7777778 C106.377692,17.7777778 113.825468,19.8563268 120.272891,23.4985432 C130.565544,9.26259942 147.312185,0 166.222222,0 Z"></path>
                <g transform="translate(170.000000, 570.000000)" id="草">
                    <ellipse ry="4" rx="12.8" cy="78" cx="26.8" fill="#CCDCF6" id="椭圆形"></ellipse>
                    <path fill-rule="nonzero" fill="url(#linearGradient-4)" id="路径-42" d="M13.2096985,76.4334696 C14.9527214,47.3262499 22.2548023,30.479152 35.1159413,25.892176 C40.1793835,25.2161532 45.8226773,24.1997042 41.8878028,30.7617951 C37.9529282,37.3238861 27.4160559,34.7701422 16.879533,76.4161198 C15.9265298,78.1966928 14.7032516,78.202476 13.2096985,76.4334696 Z"></path>
                    <path fill-rule="nonzero" fill="url(#linearGradient-5)" id="路径-41" d="M12.9692534,76.0688036 C9.54744327,48.8820916 6.74680699,31.7849012 4.56734456,24.7772324 C1.2981509,14.2657291 -5.66257226,-5.963969 8.82439601,1.68943966 C23.3113643,9.34284832 25.0241679,48.6011298 18.327685,72.4929976 C16.2462776,78.5387167 14.4601337,79.730652 12.9692534,76.0688036 Z"></path>
                </g>
                <g fill-rule="nonzero" transform="translate(686.120225, 515.426704)" id="草">
                    <path fill="url(#linearGradient-6)" id="路径-43" d="M65.8576891,95.4430222 C63.3395468,83.9806553 55.9856639,75.9680543 43.7960405,71.4052192 C29.8759357,66.9305791 22.2494886,61.6117041 30.9599814,57.7550267 C38.3155159,57.1703291 54.0022982,51.4419217 65.8576891,85.6583003 C66.6827635,88.9740418 66.6827635,92.2356158 65.8576891,95.4430222 Z"></path>
                    <path fill="url(#linearGradient-7)" id="路径-44" d="M66.4764949,97.2611071 C59.1454779,69.8960192 50.8174439,49.9170768 41.4923928,37.3242799 C34.6452589,28.7188412 35.1250476,16.405104 41.4923928,13.6218727 C48.0100381,12.8970718 60.0222617,11.7760378 69.0669112,58.9373338 C69.6381527,62.1812743 72.8251647,81.1589956 69.0669112,93.4066801 C68.5106318,95.0875751 67.6471596,96.3723841 66.4764949,97.2611071 Z"></path>
                    <path fill="url(#linearGradient-8)" id="路径-45" d="M68.1696321,91.0804085 C71.4853494,78.835463 71.0643832,62.8586309 66.9067333,43.1499123 C60.5471905,24.0440706 49.6921744,0.541796566 69.4774519,0 C77.5044316,1.09154868 87.1972186,9.50543486 83.5347739,51.4392686 C81.3029234,68.3604083 77.4213217,78.3565362 73.3477064,91.0804085 C71.9266832,91.8737887 70.2006584,91.8737887 68.1696321,91.0804085 Z"></path>
                    <path fill="url(#linearGradient-9)" id="路径-46" d="M72.0427224,95.836031 C70.7154818,61.2121058 77.0522244,36.363996 91.0529503,21.2917016 C94.833726,16.2551414 109.217459,11.5380494 109.163159,27.3263959 C107.661554,34.1152854 104.448437,48.6087163 85.9202741,70.7214245 C79.8162941,78.7025415 75.8046094,90.365172 75.7655073,93.0996265 C75.7394392,94.9225962 74.4985109,95.834731 72.0427224,95.836031 Z"></path>
                    <path fill="url(#linearGradient-10)" id="路径-47" d="M0,100.407711 C13.8643816,97.8236334 21.5103995,95.6299697 22.9380537,93.8267198 C25.0795349,91.1218449 43.9450099,79.5080271 55.7094426,89.2905093 C58.2703723,85.9992821 66.4835238,83.4391237 71.1837342,89.2905093 C73.3341085,80.0524096 86.7490663,74.1360276 92.583369,75.0945046 C99.1537088,74.5803177 118.55034,74.7942504 120,100.407711 C114.707841,100.530921 74.7078414,100.530921 0,100.407711 Z"></path>
                </g>
            </g>
            <ellipse ry="16.0253181" rx="61.430386" cy="598.301625" cx="415.155579" fill-rule="nonzero" fill="#D1D6E2" id="椭圆形"></ellipse>
            <rect rx="10.6835454" height="409.535907" width="21.3670908" y="169.003398" x="398.239966" fill-rule="nonzero" fill="url(#linearGradient-11)" id="矩形"></rect>
            <g fill-rule="nonzero" transform="translate(363.130382, 467.252373)" id="编组-4">
                <path fill="url(#linearGradient-12)" id="路径-38" d="M46.4613832,98.8227948 C52.4900672,54.5103926 37.0029395,30.6383121 0,27.2065532 C50.0844514,22.6022983 83.2378897,51.9242451 83.774718,98.8227948 C73.3911089,99.1708649 60.9533307,99.1708649 46.4613832,98.8227948 Z"></path>
                <path fill="url(#linearGradient-13)" id="路径-39" d="M70.7851879,99.0838474 C80.562558,54.3666322 68.5369665,21.3386831 34.7084133,0 C77.9036375,13.1052905 108.935495,32.8005114 119.023028,99.0838474 C105.840724,100.022515 89.7614441,100.022515 70.7851879,99.0838474 Z"></path>
                <path fill="url(#linearGradient-14)" id="路径-40" d="M126.687581,99.7878483 C122.363433,57.2871228 138.22137,32.9353965 174.261394,26.7326693 C140.832986,25.918458 103.542944,23.7607934 76.8657206,99.7878483 C99.4736226,99.0898932 116.080909,99.0898932 126.687581,99.7878483 Z"></path>
            </g>
            <ellipse ry="23.1476817" rx="80.1265904" cy="591.179262" cx="410.110572" fill="#CCDCF6" id="椭圆形"></ellipse>
            <path fill-rule="nonzero" fill="url(#linearGradient-15)" id="椭圆形" d="M386.776307,595.693886 C421.686765,595.693886 448.096511,596.516973 448.096511,564.780193 C448.096511,533.043412 419.795993,507.315669 384.885534,507.315669 C349.975075,507.315669 321.674557,533.043412 321.674557,564.780193 C321.674557,596.516973 351.865848,595.693886 386.776307,595.693886 Z"></path>
            <path fill-rule="nonzero" fill="url(#linearGradient-16)" id="椭圆形备份-6" d="M456.586269,596.343967 C478.325835,596.343967 494.771806,596.856523 494.771806,577.093282 C494.771806,557.33004 477.148406,541.308768 455.40884,541.308768 C433.669275,541.308768 416.045875,557.33004 416.045875,577.093282 C416.045875,596.856523 434.846703,596.343967 456.586269,596.343967 Z"></path>
            <polygon points="268.571443 201.054034 545.901073 215.588264 576.318299 254.261208 542.025278 289.542832 264.695648 275.008602 298.988669 239.726978" fill-rule="nonzero" fill="url(#linearGradient-17)" id="矩形"></polygon>
            <path transform="translate(421.387647, 245.568807) rotate(3.000000) translate(-421.387647, -245.568807)" fill="#FFFFFF" id="形状结合" d="M367.994323,255.40365 C372.911289,255.40365 376.897277,251.417662 376.897277,246.500696 C376.897277,241.58373 372.911289,237.597741 367.994323,237.597741 C363.077357,237.597741 359.091368,241.58373 359.091368,246.500696 C359.091368,251.417662 363.077357,255.40365 367.994323,255.40365 Z M421.387647,254.471761 C426.304613,254.471761 430.290602,250.485773 430.290602,245.568807 C430.290602,240.651841 426.304613,236.665852 421.387647,236.665852 C416.470681,236.665852 412.484693,240.651841 412.484693,245.568807 C412.484693,250.485773 416.470681,254.471761 421.387647,254.471761 Z M474.780972,253.539872 C479.697938,253.539872 483.683926,249.553883 483.683926,244.636917 C483.683926,239.719951 479.697938,235.733963 474.780972,235.733963 C469.864006,235.733963 465.878017,239.719951 465.878017,244.636917 C465.878017,249.553883 469.864006,253.539872 474.780972,253.539872 Z"></path>
            <polygon points="297.575173 311.31633 504.821608 311.31633 529.000359 338.949188 504.821608 366.582046 297.575173 366.582046 321.753924 338.949188" transform="translate(413.287766, 338.949188) scale(-1, 1) translate(-413.287766, -338.949188)" fill-rule="nonzero" fill="url(#linearGradient-18)" id="矩形备份-10"></polygon>
            <polygon points="284.846788 381.901011 492.093223 381.901011 516.271973 409.533869 492.093223 437.166727 284.846788 437.166727 309.025539 409.533869" transform="translate(400.559381, 409.533869) rotate(-5.000000) translate(-400.559381, -409.533869)" fill-rule="nonzero" fill="url(#linearGradient-19)" id="矩形备份-11"></polygon>
            <g fill-rule="nonzero" transform="translate(189.187186, 144.684797)" id="编组">
                <path transform="translate(476.084519, 59.924284) rotate(-13.000000) translate(-476.084519, -59.924284)" stroke="url(#linearGradient-20)" id="路径-20" d="M530.37649,74.9775287 C488.806367,79.8883244 456.406738,73.3604357 433.177603,55.3938628 C414.800763,40.537557 420.356461,10.9580344 437.841943,10.9580344 C455.327424,10.9580344 465.932267,25.5456011 465.932267,48.2097799 C465.932267,70.8739586 454.51011,97.2415132 437.841943,108.890534"></path>
                <path transform="translate(401.640657, 150.300613) rotate(-14.000000) translate(-401.640657, -150.300613)" fill="url(#linearGradient-21)" id="路径-18" d="M428.586005,143.486334 C419.82359,132.157965 408.9979,132.157965 396.108934,143.486334 C389.292329,149.875709 384.796494,160.093782 374.695309,160.093782 C406.372883,171.137764 424.336448,165.601948 428.586005,143.486334 Z"></path>
                <path transform="translate(419.933560, 139.741330) rotate(-14.000000) translate(-419.933560, -139.741330)" stroke="url(#linearGradient-22)" id="路径-19" d="M440.237608,130.250948 C436.989634,136.577869 423.453602,142.904791 399.629513,149.231712"></path>
                <path transform="translate(27.463264, 380.274464) rotate(2.000000) translate(-27.463264, -380.274464)" fill="url(#linearGradient-21)" id="路径-18备份" d="M54.408612,373.460186 C45.6461969,362.131817 34.8205068,362.131817 21.9315417,373.460186 C15.1149367,379.84956 10.6191015,390.067633 0.5179163,390.067633 C32.1954898,401.111615 50.159055,395.575799 54.408612,373.460186 Z"></path>
                <path transform="translate(47.958064, 375.166438) rotate(2.000000) translate(-47.958064, -375.166438)" stroke="url(#linearGradient-22)" id="路径-19备份" d="M68.2621118,365.676055 C65.0141379,372.002977 51.4781062,378.329898 27.6540166,384.65682"></path>
                <path transform="translate(49.506141, 338.612707) rotate(-13.000000) translate(-49.506141, -338.612707)" stroke="url(#linearGradient-23)" id="路径-22" d="M83.7453323,329.367658 C56.2950671,341.69439 33.4689396,347.857756 15.2669496,347.857756"></path>
            </g>
            <g transform="translate(506.000000, 488.000000)" id="人物">
                <ellipse ry="28.8" rx="90" cy="176" cx="90" fill="#CCDCF6" id="椭圆形"></ellipse>
                <path fill="#FEE0BC" id="胳膊-path" d="M36.2395535,105.69776 L26.712815,122.509131 C26.712815,122.509131 25.8147147,124.026462 26.0553541,125.475235 C26.3088848,126.991273 27.6968579,128.112347 27.6968579,128.112347 L56.0757021,144.001623 L56.2727762,130.090181 L44.1204909,122.838555 L52.9897684,109.324003 L36.2395535,105.69776 Z"></path>
                <path fill="#FEE0BC" id="胳膊-path" d="M153.791857,105.69776 L163.305704,122.509131 C163.305704,122.509131 164.199507,124.026462 163.958868,125.475235 C163.709634,126.991273 162.321661,128.112347 162.321661,128.112347 L134.067893,144.751661 L133.784417,130.090181 L145.919514,122.838555 L137.063128,109.324003 L153.791857,105.69776 Z"></path>
                <g transform="translate(66.284830, 0.000000)" id="脑袋">
                    <rect height="16" width="16" y="58" x="18.3408269" fill="url(#linearGradient-24)" id="矩形"></rect>
                    <ellipse ry="5" rx="3" cy="45" cx="46.7151702" transform="translate(46.715170, 45.000000) rotate(22.000000) translate(-46.715170, -45.000000)" fill="#FEE0BC" id="椭圆形"></ellipse>
                    <ellipse ry="5" rx="3" cy="45" cx="4.7151702" transform="translate(4.715170, 45.000000) scale(-1, 1) rotate(23.000000) translate(-4.715170, -45.000000)" fill="#FEE0BC" id="椭圆形备份-2"></ellipse>
                    <circle r="20" cy="42" cx="26.3408269" fill="url(#linearGradient-25)" id="椭圆形"></circle>
                    <ellipse ry="7" rx="9" cy="7" cx="24.7151702" fill="#483029" id="椭圆形"></ellipse>
                    <path fill="#483029" id="路径-51" d="M3.50346234,44 C17.3715312,36.4746607 24.8457247,30.2324035 25.9260427,25.2732285 C28.2679173,32.0022993 42.6404146,42.4238091 48.348623,42.3267746 C51.5066137,33.2201364 52.3806952,24.6473188 42.4076805,16.2874954 C32.4346657,7.92767201 20.9350447,7.88069729 8.33873356,16.2874954 C-0.130189727,23.4061673 -1.7419468,32.6436688 3.50346234,44 Z"></path>
                </g>
                <path fill="url(#linearGradient-26)" id="衣服" d="M84.9822157,64.4027957 C86.3838525,65.2250143 89.013026,67.5479659 92.8697364,71.3716504 C97.6922772,66.7257473 100.103548,64.4027957 100.103548,64.4027957 L120.153505,67.7017628 C120.153505,67.7017628 124.849891,68.4897176 127.714171,71.3299795 C135.627495,79.1763 148.753294,94.4218869 148.753294,94.4218869 L157.956835,104.648901 C155.664721,107.414285 153.010002,109.855557 150.065013,111.906197 C145.44604,115.078298 139.218597,117.515951 139.218597,117.515951 L131.989087,110.588336 L131.989087,159.079055 L58.3564575,159.079055 L58.3564575,109.926385 L54.0815417,115.20689 C54.0815417,115.20689 47.7508817,113.968429 42.2459599,111.24813 C38.5881945,109.352228 35.1680554,107.026702 32.057554,104.320514 L53.7546869,77.599959 C55.1037696,76.2018734 56.5295224,74.8803779 58.025302,73.6416299 C59.3843045,72.5596417 60.8123186,71.5679107 62.3002178,70.6727752 C64.1158122,69.8873298 65.9822854,69.2260265 67.8868533,68.6933949 C74.5916759,66.8387237 84.9822157,64.4027957 84.9822157,64.4027957 Z"></path>
                <path fill-rule="nonzero" fill="url(#linearGradient-27)" id="裤子" d="M138.90247,140.651777 C138.90247,140.651777 156.905066,133.151119 162.132044,149.507455 C166.740778,163.93949 151.340863,166.969885 151.340863,166.969885 L151.340863,166.969885 L139.69741,169.118767 L134.626636,185.266105 L93.4480576,177.65776 L52.2357922,185.266105 L47.1584173,169.105673 L35.6382976,166.978109 C35.6382976,166.978109 20.2556758,163.947716 24.8600862,149.523473 C30.0827414,133.174496 48.0637207,140.671692 48.0637207,140.671692 L93.4279137,152.783083 L138.90247,140.651777 Z"></path>
                <path fill="#FEE0BC" id="脚" d="M48.3068347,173.179774 L43.3471806,173.502346 C41.8060867,173.584157 40.26157,173.584157 38.7204761,173.502346 C35.5423194,173.369944 32.5933358,173.365306 32.5933358,173.365306 C32.5933358,173.365306 26.6780726,173.150257 25.4500501,174.841127 C23.0891337,178.094679 24.3214802,184.708042 24.3214802,184.708042 C24.3214802,184.708042 25.0652121,187.445056 26.4705195,188.679264 C27.6553018,189.723723 29.8302852,188.939852 29.8302852,188.939852 C29.8302852,188.939852 33.7435259,187.91774 37.9162079,187.03014 C43.5720298,185.8284 45.9934825,185.42782 45.9934825,185.42782 L51.9433379,183.815803 L48.3068347,173.179774 Z M138.553514,173.179774 L143.539113,173.503611 C145.088847,173.585908 146.642026,173.585908 148.191762,173.503611 C151.387215,173.370787 154.353494,173.366149 154.353494,173.366149 C154.353494,173.366149 160.299025,173.150257 161.535696,174.848716 C163.909584,178.116605 162.66859,184.760749 162.66859,184.760749 C162.66859,184.760749 161.920534,187.509571 160.510903,188.749682 C159.317472,189.798358 157.133841,189.011534 157.133841,189.011534 C157.133841,189.011534 153.19898,187.984363 149.000354,187.092968 C143.314264,185.886168 140.879839,185.483059 140.879839,185.483059 L134.895392,183.864294 L138.553514,173.179774 Z"></path>
                <path fill="#483029" id="电脑" d="M58.1532796,84.4603497 L130.163267,84.4603497 C132.369648,84.4603497 134.158273,86.1251607 134.158273,88.1788091 L134.158273,140.46035 L54.1582734,140.46035 L54.1582734,88.1788091 C54.1582734,86.1251607 55.9468986,84.4603497 58.1532796,84.4603497 Z M55.2594817,140.46035 L133.057064,140.46035 C134.16502,140.46035 135.188812,141.154587 135.74279,142.281551 C136.296768,143.408514 136.296768,144.796991 135.74279,145.923953 C135.188812,147.050917 134.16502,147.745155 133.057064,147.745155 L55.2594817,147.745155 C53.5467316,147.745155 52.1582734,146.114396 52.1582734,144.102753 C52.1582734,142.091109 53.5467316,140.46035 55.2594817,140.46035 L55.2594817,140.46035 Z"></path>
            </g>
        </g>
    </g>
</svg>