<svg t="1648439509149" class="icon" viewBox="0 0 1122 1024" version="1.1" xmlns="http://www.w3.org/2000/svg" p-id="12170" width="128" height="128"><path d="M275.080867 322.759398S227.397724 219.949394 290.258856 201.958105l-116.977972-31.41673s88.300751 114.21079 1.369755 154.062811l100.430228-1.844788z" fill="#F7E2CD" p-id="12171"></path><path d="M285.038107 318.142818v0.004612c-7.392986-15.989695-23.982237-63.133238-12.170985-88.918755 3.860218-8.430679 10.533736-13.900473 20.403349-16.722998a10.976485 10.976485 0 0 0-0.170643-21.145876l-116.977971-31.421342a10.976485 10.976485 0 0 0-11.529922 17.308718c0.465809 0.599556 46.45636 60.914881 35.793489 104.110579-3.629619 14.698344-13.545352 25.577978-30.309858 33.26613a10.976485 10.976485 0 0 0 4.768776 20.947561l100.43484-1.840175a10.971873 10.971873 0 0 0 9.758925-15.588454zM179.2211 334.579874c22.93532-10.515288 37.227811-26.666402 42.480843-48.001369 13.16717-53.494224-37.57832-119.943467-39.745946-122.747544a10.967261 10.967261 0 0 1-11.529921 17.308718l116.982583 31.41673a10.967261 10.967261 0 0 1-0.170643-21.145876c-16.18801 4.630416-27.736379 14.292491-34.331494 28.714116-18.415591 40.276322 10.958037 104.539492 12.221717 107.255942a10.976485 10.976485 0 0 1 9.754313-15.588454l-100.43484 1.840176a10.971873 10.971873 0 0 1 4.773388 20.947561z" fill="#6E6E96" p-id="12172"></path><path d="M209.936811 244.388216c-11.589877-35.544442-21.768492-51.303539-29.49354-62.773505l2.186074-12.456927 107.624899 32.800321c-39.210957 11.22092-37.098675 51.109836-28.681833 82.79406l-0.004612 0.004612c0.004612-0.004612-24.609464-101.666236-51.630988-40.368561z" fill="#6E6E96" opacity=".15" p-id="12173"></path><path d="M246.661917 130.781594m-83.476632 0a83.476632 83.476632 0 1 0 166.953263 0 83.476632 83.476632 0 1 0-166.953263 0Z" fill="#F0F0FF" p-id="12174"></path><path d="M246.661917 58.276835c39.976544 0 72.504758 32.523603 72.504758 72.504759 0 39.976544-32.528215 72.500146-72.504758 72.500146s-72.504758-32.523603-72.504759-72.500146c0-39.976544 32.523603-72.504758 72.504759-72.504759zM152.213412 130.786206c0 52.078349 42.370156 94.448505 94.448505 94.448504s94.448505-42.370156 94.448505-94.448504-42.370156-94.453117-94.448505-94.453117-94.448505 42.374767-94.448505 94.453117z" fill="#6E6E96" p-id="12175"></path><path d="M222.628948 137.003139m-17.968229 0a17.96823 17.96823 0 1 0 35.936459 0 17.96823 17.96823 0 1 0-35.936459 0Z" fill="#6E6E96" p-id="12176"></path><path d="M368.514739 383.32377S361.269336 270.224464 426.376497 276.196963l-97.681495-71.623872s25.195184 96.96664-18.341799 96.96664l58.161536 81.784039z" fill="#F7E2CD" p-id="12177"></path><path d="M379.463552 382.622751v0.004612c-1.10226-17.580824 0.488869-67.528444 20.836875-87.299954 6.650459-6.456756 14.850539-9.145534 25.070661-8.204692a10.967261 10.967261 0 0 0 7.489837-19.776121l-97.681495-71.623873a10.976485 10.976485 0 0 0-17.110404 11.608325c6.037067 23.308889 11.612937 65.462282 0.871662 79.335084-2.112282 2.734897-4.68576 3.901725-8.592097 3.901726-4.109264 0-7.87263 2.292148-9.749702 5.944827a10.958037 10.958037 0 0 0 0.811707 11.386951l58.156924 81.784039a10.967261 10.967261 0 0 0 19.896032-7.060924zM310.353203 312.511604c10.695155 0 19.670046-4.293743 25.956159-12.424643 20.763083-26.846269 4.884075-91.04026 3.007004-98.276439a10.971873 10.971873 0 0 1-17.110404 11.603713l97.681495 71.623872a10.976485 10.976485 0 0 1 7.489837-19.776121c-16.764506-1.535786-31.029325 3.288334-42.397827 14.347834-31.739568 30.881742-27.611856 101.417189-27.418153 104.405745a10.971873 10.971873 0 0 1 19.89142-7.060924l-58.156924-81.779427c2.379776 3.348289 2.69339 7.738883 0.807095 11.391563a10.958037 10.958037 0 0 1-9.749702 5.944827z" fill="#6E6E96" p-id="12178"></path><path d="M332.061739 285.102675c8.50447-22.704721 0.793259-67.039576-2.250641-80.524972l8.117065 2.103058L426.376497 276.201575c-40.617607-3.726471-53.069923 34.216195-56.69493 66.799754l-0.004612 0.004612c0-0.004612 9.754314-105.272795-37.615216-57.903266z" fill="#6E6E96" opacity=".15" p-id="12179"></path><path d="M411.493674 194.067027m-83.476631 0a83.476632 83.476632 0 1 0 166.953263 0 83.476632 83.476632 0 1 0-166.953263 0Z" fill="#F0F0FF" p-id="12180"></path><path d="M411.493674 121.56688c39.976544 0 72.504758 32.523603 72.504759 72.504759 0 39.976544-32.523603 72.500146-72.504759 72.500146s-72.500146-32.523603-72.500146-72.500146c0-39.981156 32.523603-72.504758 72.500146-72.504759zM317.049781 194.071639c0 52.078349 42.370156 94.448505 94.448505 94.448505s94.448505-42.370156 94.448505-94.448505-42.370156-94.453117-94.453117-94.453117c-52.078349 0-94.443893 42.374767-94.443893 94.453117z" fill="#6E6E96" p-id="12181"></path><path d="M386.83809 191.17071m-17.972841 0a17.972842 17.972842 0 1 0 35.945683 0 17.972842 17.972842 0 1 0-35.945683 0Z" fill="#6E6E96" p-id="12182"></path><path d="M367.53239 374.667105C296.457342 129.591706-171.79583 478.726953 129.50869 865.804865c101.726191 130.693966 353.119988 147.186366 498.724449 147.186366 249.724264 0 452.166625-35.110917 452.166625-78.426526s-203.166441-59.471335-452.166625-78.421914c-354.130009-26.961568-248.635839-439.871117-260.700749-481.475686z" fill="#F7E2CD" p-id="12183"></path><path d="M129.50869 865.800253c101.726191 130.698578 353.115376 147.190978 498.724449 147.190978 249.724264 0 452.166625-35.115529 452.166625-78.426526 0-43.320221-203.166441-59.471335-452.166625-78.421914-354.134621-26.96618-248.640451-439.875729-260.700749-481.475686-71.075048-245.080011-539.318996 104.059847-238.0237 491.133148z m238.0237-491.13776c6.341457 35.595174-63.253149 400.96455 111.051592 470.923502 117.697439 47.249618 569.951691 38.842 569.951691 75.908391 0 37.047944-438.501362 17.972842-569.951691 17.972842-76.641694 0-208.959073-14.117236-262.508641-125.952863-158.587152-331.203913 114.049371-648.553472 151.457049-438.851872z" fill="#EDD9C4" p-id="12184"></path><path d="M129.50869 865.800253c101.726191 130.698578 353.115376 147.190978 498.724449 147.190978 189.888583 0 352.414357-20.301886 419.4032-49.085182-82.858628 17.96823-210.291932 29.479703-353.235287 29.479703-145.604461 0-410.548221-2.947048-512.279024-133.641014C-12.646018 609.522382 131.717823 300.359067 260.945183 293.381158c-147.721354 9.560611-358.926456 280.167868-131.436493 572.419095z" fill="#DECCB8" p-id="12185"></path><path d="M378.070738 371.60937c-15.035018-51.856975-48.762344-83.352108-94.960434-88.688156-74.607816-8.610545-166.89792 52.968459-219.437466 146.430003-36.291581 64.553724-103.36344 236.953723 57.174575 443.191734 77.102891 99.060474 252.5514 151.420153 507.385726 151.420153 121.391625 0 235.602416-8.213916 321.601794-23.129022 141.532092-24.549509 141.532092-55.952403 141.532092-66.269377 0-49.274273-133.797821-64.360022-462.303732-89.361504-81.760979-6.226158-144.677455-34.405286-187.010715-83.762573-83.186078-96.971252-71.250303-252.191667-64.830442-335.585283 2.347492-30.522008 3.362125-45.580086 0.848602-54.245975z m249.332246 495.482234c186.540294 14.191027 442.024906 33.644311 442.024907 67.477713 0 23.539488-151.526228 67.450041-441.19014 67.450041-247.810297 0-417.277083-49.431079-490.067784-142.947967-152.44401-195.851859-89.499863-358.234661-55.362071-418.960452C131.201283 354.01471 214.382748 297.084569 280.59217 304.726601c37.380005 4.316803 63.801974 29.558107 76.401871 72.998239 1.512726 5.220748-0.096851 26.182146-1.660308 46.447136-6.659683 86.566651-19.052042 247.681162 70.055803 351.565754 46.276493 53.927749 114.238462 84.66652 202.013448 91.353874z" fill="#6E6E96" p-id="12186"></path><path d="M448.301796 669.620945a279.614432 279.443789 90 1 0 558.887578 0 279.614432 279.443789 90 1 0-558.887578 0Z" fill="#8B5C29" p-id="12187"></path><path d="M761.186969 632.826659l-0.498092-0.618003c8.735069 10.252406 23.050619 19.513239 28.220636 19.642374a2.651882 2.651882 0 0 0-0.63184 0.096851c0.659512-0.225986 3.18687-1.604965 6.973296-5.391391a6.055515 6.055515 0 0 0-1.236007 2.384388c0.650288-3.652679-2.970108-20.002108-19.808405-37.569097-19.411776-20.246542-44.427094-30.498948-66.924277-27.441213-69.769861 9.482207-93.249393 60.887209-91.233962 90.694363 4.326027 63.958781 73.879125 142.897235 163.821736 142.897235 122.623021 0 176.191036-84.980133 180.295689-164.50892 5.285316-102.224284-60.615103-219.677288-217.767934-235.985209-111.812567-11.603713-209.364927 32.07163-251.795037 135.181411-36.420716 88.535961-31.453626 230.358608 65.517626 308.466908 30.632695 24.674032 123.383996 64.996473 98.723799 95.656841-24.655584 30.655755-157.383428-15.874396-188.025347-40.548428-150.566939-124.910558-176.287888-251.596723-107.901618-417.816683 66.776693-162.327459 217.251393-251.859605 392.699903-233.651554 238.475672 24.747824 354.222248 212.459557 345.298089 385.090154-9.11325 176.444695-139.484378 299.658048-317.040558 299.658048-176.398575 0-280.808932-136.445091-289.479433-264.828461-8.592097-127.216542 70.867509-224.275421 197.733542-241.514959 102.219672-13.895861 192.526629 53.143714 228.887389 126.547806 32.07163 64.742815 24.000685 132.967667-21.053636 178.04966-41.424702 41.456986-85.086209 48.365715-114.395269 46.839153-72.375623-3.731083-121.737523-60.200026-130.896893-71.471677-24.803167-30.545068-20.163527-75.424134 10.358481-100.236526 30.512784-24.812391 75.364179-20.172751 100.158122 10.376929z" fill="#D59758" p-id="12188"></path><path d="M769.659156 625.848751l-0.290554-0.355122-3.292946-4.049308c-0.170643-0.207539-5.391391-0.207539-5.391391-0.207539h-23.774698l15.427035 18.092753c8.250812 9.680522 25.462679 23.225874 36.300804 23.488756l0.272107-21.943746c-0.641064 0-2.31982 0.06918-4.104652 0.659511l7.00558 20.80459c3.113079-1.056141 7.093208-3.910949 11.207084-8.029437l-15.62535-15.408587c-2.029266 2.08461-3.717247 5.386779-4.192279 8.209304l21.620908 3.744919c1.351307-7.63742-3.611171-27.173719-22.695497-47.074364-21.819223-22.769289-50.358085-34.257703-76.318857-30.720323-77.683999 10.552184-103.003707 68.353987-100.706946 102.311912 4.884075 72.283384 80.667943 153.126581 174.77055 153.126581 125.883683 0 186.761668-87.85339 191.253726-174.913521 5.543586-107.237494-63.313105-230.418563-227.596038-247.469011-122.908963-12.752093-221.254582 40.299382-263.071301 141.914886-39.810513 96.777549-29.235269 242.243651 68.778287 321.195941 8.652053 6.968685 21.542505 14.859763 35.184709 23.207426 24.268179 14.859763 60.942553 37.310826 63.469912 51.852363 0.276718 1.572681 0.106075 3.053123-1.595741 5.174629-2.246029 2.790241-7.623584 4.773387-15.145705 5.585093-44.657692 4.828731-135.273651-29.950124-157.447996-47.807666-141.735019-117.577527-173.064122-238.761614-104.636344-405.092262 64.853502-157.650923 211.006787-244.600367 381.419027-226.913467 231.677631 24.042192 344.131261 206.150384 335.474596 373.610964-8.795024 170.306164-134.660259 289.248835-306.08252 289.248835-169.748116 0-270.196792-131.173611-278.530619-254.594503-8.17702-121.101071 67.477713-213.492638 188.26517-229.906634 97.095775-13.199454 182.94757 50.653251 217.57423 120.547635 29.908616 60.389117 22.635542 123.780625-18.982862 165.431314-38.588341 38.616013-78.979962 45.049709-106.066054 43.633834-67.740595-3.49126-114.30303-56.787169-122.945859-67.436204-20.947561-25.790128-17.013552-63.843481 8.758128-84.804879a59.761889 59.761889 0 0 1 44.178047-13.16717c16.003531 1.651085 30.402097 9.454536 40.543816 21.943746l16.990493-13.891249z m0.050731 0.064567a81.608784 81.608784 0 0 0-55.325175-29.945512 81.562665 81.562665 0 0 0-60.283042 17.96823c-35.157037 28.589593-40.516144 80.478852-11.94961 115.668172 9.671298 11.908103 61.823439 71.545469 138.843315 75.516374 31.536641 1.632637 78.426526-5.718841 122.719872-50.044471 48.49485-48.522522 57.359053-121.58994 23.129022-190.681842-38.104085-76.918412-132.843144-147.14947-240.195936-132.552589-132.939995 18.065081-216.204476 119.791272-207.201913 253.132508 9.002563 133.341236 117.356153 275.057807 300.428246 275.057808 183.690097 0 318.571731-127.502484 328.003207-310.058037 9.187041-177.805225-109.843256-371.115889-355.126194-396.573956-180.484779-18.729204-335.280893 73.385644-403.98539 240.394251-72.735357 176.799816-39.529183 305.529084 111.042368 430.430417 25.831636 20.80459 122.401647 58.189208 173.700574 52.64101 13.739054-1.485054 23.793146-6.078575 29.880944-13.656039 5.414451-6.728862 7.526733-14.573821 6.124695-22.681662-4.229175-24.31891-39.510735-45.925983-73.634691-66.808977-13.028811-7.974094-25.32432-15.505438-32.874112-21.593237-89.730461-72.269548-99.042026-206.311803-62.256964-295.747098 38.473042-93.489215 126.137341-140.305309 240.514162-128.438714 150.041174 15.570006 212.962262 127.290333 207.935216 224.510632-3.666515 71.084272-50.210502 154.095095-169.333039 154.095095-81.046124 0-148.726763-71.31487-152.868311-132.663277-1.761772-26.039175 18.886011-70.54006 81.765591-79.076814 19.028982-2.591926 40.52998 6.438308 57.520473 24.157492 13.508456 14.094176 16.75067 26.68485 16.824461 29.05079 0 0-0.009224-0.373569 0.096851-0.991573l21.620909 3.740306c-0.290554 1.724876-0.793259 2.490463-1.724876 3.449753l-15.62535-15.413199c-2.402836 2.402836-3.763366 3.18687-3.77259 3.196094a6.364517 6.364517 0 0 1 1.033081-0.442749l7.00558 20.799978a8.476798 8.476798 0 0 1-2.83636 0.470421l0.262882-21.943746c0.530376 0.013836 0.839378 0.092239 0.839378 0.092239-2.868644-0.701019-13.771338-7.429881-20.975233-15.874396l-8.347663 18.092753-8.458351-3.980129 0.484257 0.594944 16.999716-13.89125z" fill="#6E6E96" p-id="12189"></path><path d="M575.799668 951.841139c-6.604339-2.250641-135.960834-29.913228-201.552252-167.972508-37.001824-77.854642-37.878098-165.408254-2.619598-260.221104 51.271255-137.860965 141.845706-199.785868 208.806878-227.466904 93.922741-38.81894 201.819746-36.222401 296.028429 7.139328 151.410929 69.691457 222.555157 217.537335 190.322108 395.467083-14.45391 79.791669-81.225991 150.488535-174.258622 184.501804-101.795371 37.218587-208.184263 21.731596-284.544627-41.452374-95.979679-79.381204-99.189609-208.682355-57.640383-293.556413 26.920061-54.993114 123.144174-119.837392 249.166215-73.537839 111.568132 40.977341 129.88226 107.675631 130.864609 143.787345 1.443546 53.060699-32.505155 103.73701-84.472816 126.100445-51.464958 22.165121-106.458071 11.101008-147.117187-29.576555-16.045039-16.058875-16.045039-42.093437 0-58.138476a41.078804 41.078804 0 0 1 58.096969 0c21.10898 21.118204 42.397827 18.295679 56.547347 12.203269 20.693903-8.910323 35.336903-29.235269 34.820363-48.342655-0.710243-26.039175-28.79252-51.132896-77.047548-68.852079-68.275583-25.079885-121.400849-11.829699-149.598425 37.306214-30.079259 52.401187-23.816206 137.524292 38.7267 189.256744 53.641807 44.367138 129.900708 54.6795 203.996595 27.584184 64.747427-23.677847 112.47669-71.540857 121.613-121.94045 25.49035-140.72961-26.920061-252.306966-143.815017-306.10558-72.421743-33.339921-158.531809-35.521382-230.330935-5.843364-74.340322 30.729547-130.763146 93.018795-163.157614 180.152717-27.150659 72.998239-27.289018 138.866375-0.415077 195.773455 50.307353 106.531863 179.304115 168.470601 180.595467 168.917962l-0.09224-0.027671c21.487162 7.28691 27.524229 11.958835 20.232707 33.469056-2.329044 6.885669-30.079259 4.934806-46.613167 4.934806l-26.541879-3.56044z" fill="#DEA66C" p-id="12190"></path><path d="M725.62408 475.664605c-110.013899 0-199.748972 79.621026-204.642271 179.516266a176.938175 176.938175 0 0 1-0.239823-8.592097c0-103.875369 91.722831-188.099139 204.882094-188.09914 113.15465 0 204.882093 84.219159 204.882093 188.09914 0 2.88248 0.133747-2.836361 0 0-4.897911-99.89524-94.868194-170.924168-204.882093-170.924169zM893.587364 793.147912s-204.540807 125.957474-281.685206-85.83796c0 0 65.374655 171.680531 281.685206 85.83796z" fill="#E4BC96" p-id="12191"></path><path d="M1013.701474 612.617013v0.041508c-0.115299-11.700564-6.525936-286.583117-310.528458-286.583117-253.058717 0-289.396418 275.246898-290.812292 286.956686a21.943747 21.943747 0 1 1-43.569267-5.285316c0.405853-3.306781 10.35387-81.876279 55.749476-161.372781 61.343794-107.417361 157.697042-164.190694 278.636695-164.190694 181.411785 0 268.375065 90.071747 309.380078 165.638852 43.952061 80.981557 45.022037 161.109899 45.040485 164.48586a21.943747 21.943747 0 0 1-21.782327 22.100554 21.962194 21.962194 0 0 1-22.11439-21.791552z" fill="#FFFFFF" opacity=".21" p-id="12192"></path><path d="M364.852836 696.587125c0 13.739054 15.523886 33.653535 29.258329 33.653535s20.481753-19.91448 20.481752-33.653535c0-13.734442-11.133292-38.039517-24.867734-38.039517-13.739054 0-24.872347 24.305075-24.872347 38.039517zM391.187177 770.470862c0 9.293117 16.312533 25.60565 25.601037 25.60565 9.293117 0 8.047885-16.312533 8.047885-25.60565s-7.531345-16.819849-16.819849-16.819849-16.829073 7.531345-16.829073 16.819849z" fill="#FFFFFF" opacity=".27" p-id="12193"></path><path d="M184.16513 730.969351m-32.920232 0a32.920232 32.920232 0 1 0 65.840464 0 32.920232 32.920232 0 1 0-65.840464 0Z" fill="#EDD9C4" p-id="12194"></path><path d="M187.896213 771.374808m-25.674829 0a25.674829 25.674829 0 1 0 51.349658 0 25.674829 25.674829 0 1 0-51.349658 0Z" fill="#EDD9C4" p-id="12195"></path><path d="M177.035027 700.793241m-24.69248 0a24.69248 24.69248 0 1 0 49.38496 0 24.69248 24.69248 0 1 0-49.38496 0Z" fill="#EDD9C4" p-id="12196"></path><path d="M250.2777 796.533097m-11.248591 0a11.248591 11.248591 0 1 0 22.497182 0 11.248591 11.248591 0 1 0-22.497182 0Z" fill="#EDD9C4" p-id="12197"></path><path d="M228.057235 658.547608m-10.971873 0a10.971873 10.971873 0 1 0 21.943747 0 10.971873 10.971873 0 1 0-21.943747 0Z" fill="#EDD9C4" p-id="12198"></path><path d="M800.831451 904.337863m-30.724934 0a30.724935 30.724935 0 1 0 61.449869 0 30.724935 30.724935 0 1 0-61.449869 0Z" fill="#D59758" p-id="12199"></path><path d="M758.138458 913.114439m-25.333543 0a25.333544 25.333544 0 1 0 50.667087 0 25.333544 25.333544 0 1 0-50.667087 0Z" fill="#D59758" p-id="12200"></path><path d="M841.430611 901.044917m-20.846098 0a20.846098 20.846098 0 1 0 41.692196 0 20.846098 20.846098 0 1 0-41.692196 0Z" fill="#D59758" p-id="12201"></path><path d="M876.54614 854.962127m-14.264819 0a14.264819 14.264819 0 1 0 28.529638 0 14.264819 14.264819 0 1 0-28.529638 0Z" fill="#D59758" p-id="12202"></path><path d="M785.445924 673.937747m-16.801401 0a16.801402 16.801402 0 1 0 33.602803 0 16.801402 16.801402 0 1 0-33.602803 0Z" fill="#D59758" p-id="12203"></path><path d="M802.076683 664.723034m-15.740649 0a15.740649 15.740649 0 1 0 31.481298 0 15.740649 15.740649 0 1 0-31.481298 0Z" fill="#D59758" p-id="12204"></path><path d="M758.286041 655.503709m-10.23857 0a10.23857 10.23857 0 1 0 20.47714 0 10.23857 10.23857 0 1 0-20.47714 0Z" fill="#D59758" p-id="12205"></path><path d="M770.415519 669.810036m-17.862155 0a17.862154 17.862154 0 1 0 35.724309 0 17.862154 17.862154 0 1 0-35.724309 0Z" fill="#D59758" p-id="12206"></path><path d="M844.723557 668.79079m-7.314583 0a7.314582 7.314582 0 1 0 14.629165 0 7.314582 7.314582 0 1 0-14.629165 0Z" fill="#D59758" p-id="12207"></path><path d="M452.632434 815.09627m-7.314582 0a7.314582 7.314582 0 1 0 14.629164 0 7.314582 7.314582 0 1 0-14.629164 0Z" fill="#FFFFFF" opacity=".27" p-id="12208"></path><path d="M145.360026 679.236899a21.556341 19.905256 90 1 0 39.810513 0 21.556341 19.905256 90 1 0-39.810513 0Z" fill="#EDD9C4" p-id="12209"></path><path d="M193.647338 633.712157m-4.053921 0a4.05392 4.05392 0 1 0 8.107841 0 4.05392 4.05392 0 1 0-8.107841 0Z" fill="#EDD9C4" p-id="12210"></path><path d="M224.423004 696.550229m-4.238399 0a4.238399 4.238399 0 1 0 8.476798 0 4.238399 4.238399 0 1 0-8.476798 0Z" fill="#EDD9C4" p-id="12211"></path><path d="M229.768276 757.55735m-6.267666 0a6.267665 6.267665 0 1 0 12.535331 0 6.267665 6.267665 0 1 0-12.535331 0Z" fill="#EDD9C4" p-id="12212"></path><path d="M854.136585 93.821277m-27.796335 0a27.796335 27.796335 0 1 0 55.592669 0 27.796335 27.796335 0 1 0-55.592669 0Z" fill="#D59758" opacity=".45" p-id="12213"></path><path d="M677.10617 180.13427m-11.705176 0a11.705176 11.705176 0 1 0 23.410352 0 11.705176 11.705176 0 1 0-23.410352 0Z" fill="#D59758" p-id="12214"></path><path d="M1023.847805 275.233062m-7.314582 0a7.314582 7.314582 0 1 0 14.629164 0 7.314582 7.314582 0 1 0-14.629164 0Z" fill="#D59758" p-id="12215"></path><path d="M114.847242 468.433039c11.497638 21.224279 48.44873 55.066905 106.015322 31.246087a10.976485 10.976485 0 0 0-8.389171-20.274214c-53.39276 22.095942-77.356549-19.683882-78.352734-21.473326l-0.216763-0.387405a12.028014 12.028014 0 0 0-0.276718-0.424301l0.516541 0.857826a10.971873 10.971873 0 1 0-19.296477 10.455333z" fill="#6E6E96" p-id="12216"></path><path d="M401.87772 146.116389c42.407051 0 76.784665 34.382226 76.784665 76.789277 0 1.678757-0.147583 3.320617-0.253658 4.971702a76.406484 76.406484 0 0 0 9.030234-36.107102c0-42.407051-34.377614-76.784665-76.784665-76.784665-40.728295 0-73.957528 31.734956-76.535619 71.812963 12.927348-24.198999 38.408474-40.682175 67.759043-40.682175zM236.557093 84.671132c42.407051 0 76.780053 34.382226 76.780054 76.784665 0 1.678757-0.142971 3.320617-0.249047 4.971702a76.44338 76.44338 0 0 0 9.030235-36.107102c0-42.407051-34.373002-76.784665-76.780053-76.784666-40.732907 0-73.96214 31.734956-76.535619 71.812964 12.913512-24.198999 38.399251-40.677563 67.75443-40.677563z" fill="#6E6E96" opacity=".15" p-id="12217"></path></svg>