<svg xmlns:xlink="http://www.w3.org/1999/xlink" xmlns="http://www.w3.org/2000/svg" version="1.1" viewBox="0 0 1024 1024" height="1024px" width="1024px">
    <title>无权限</title>
    <defs>
        <linearGradient id="linearGradient-1" y2="44.0501254%" x2="50%" y1="-29.88559%" x1="50%">
            <stop offset="0%" stop-color="#CFDFFA"></stop>
            <stop offset="100%" stop-opacity="0" stop-color="#EAF0FC"></stop>
        </linearGradient>
        <linearGradient id="linearGradient-2" y2="69.8229089%" x2="53.6226986%" y1="33.7484636%" x1="50%">
            <stop offset="0%" stop-color="#CFDFFA"></stop>
            <stop offset="100%" stop-opacity="0" stop-color="#EAF0FC"></stop>
        </linearGradient>
        <linearGradient id="linearGradient-3" y2="66.4977364%" x2="53.6226986%" y1="36.47456%" x1="50%">
            <stop offset="0%" stop-color="#CFDFFA"></stop>
            <stop offset="100%" stop-opacity="0" stop-color="#EAF0FC"></stop>
        </linearGradient>
        <linearGradient id="linearGradient-4" y2="100%" x2="57.28025%" y1="11.4973736%" x1="50%">
            <stop offset="0%" stop-color="#BFD4FA"></stop>
            <stop offset="100%" stop-color="#5792F0"></stop>
        </linearGradient>
        <linearGradient id="linearGradient-5" y2="131.881015%" x2="51.9400923%" y1="11.4973736%" x1="50%">
            <stop offset="0%" stop-color="#BFD4FA"></stop>
            <stop offset="100%" stop-color="#5792F0"></stop>
        </linearGradient>
        <linearGradient id="linearGradient-6" y2="128.49897%" x2="74.2827921%" y1="13.0877007%" x1="50%">
            <stop offset="0%" stop-color="#BFD4FA"></stop>
            <stop offset="100%" stop-color="#5792F0"></stop>
        </linearGradient>
        <linearGradient id="linearGradient-7" y2="131.881015%" x2="54.0733641%" y1="11.4973736%" x1="50%">
            <stop offset="0%" stop-color="#BFD4FA"></stop>
            <stop offset="100%" stop-color="#5792F0"></stop>
        </linearGradient>
        <linearGradient id="linearGradient-8" y2="131.881015%" x2="51.9795749%" y1="11.4973736%" x1="50%">
            <stop offset="0%" stop-color="#BFD4FA"></stop>
            <stop offset="100%" stop-color="#5792F0"></stop>
        </linearGradient>
        <linearGradient id="linearGradient-9" y2="131.881015%" x2="55.3643684%" y1="11.4973736%" x1="50%">
            <stop offset="0%" stop-color="#BFD4FA"></stop>
            <stop offset="100%" stop-color="#5792F0"></stop>
        </linearGradient>
        <linearGradient id="linearGradient-10" y2="53.7022797%" x2="74.2827921%" y1="48.2590898%" x1="50%">
            <stop offset="0%" stop-color="#BFD4FA"></stop>
            <stop offset="100%" stop-color="#5792F0"></stop>
        </linearGradient>
        <linearGradient id="linearGradient-11" y2="43.8969381%" x2="38.1376013%" y1="67.0103491%" x1="118.461169%">
            <stop offset="0%" stop-color="#5792F0"></stop>
            <stop offset="100%" stop-color="#BFD4FA"></stop>
        </linearGradient>
        <linearGradient id="linearGradient-12" y2="43.87852%" x2="38.1376013%" y1="67.0616837%" x1="118.461169%">
            <stop offset="0%" stop-color="#5792F0"></stop>
            <stop offset="100%" stop-color="#BFD4FA"></stop>
        </linearGradient>
        <linearGradient id="linearGradient-13" y2="0%" x2="51.65759%" y1="138.736338%" x1="55.5737995%">
            <stop offset="0%" stop-color="#5792F0"></stop>
            <stop offset="100%" stop-color="#BFD4FA"></stop>
        </linearGradient>
        <linearGradient id="linearGradient-14" y2="20.0076843%" x2="48.0671995%" y1="133.594066%" x1="61.1547237%">
            <stop offset="0%" stop-color="#5792F0"></stop>
            <stop offset="100%" stop-color="#BFD4FA"></stop>
        </linearGradient>
        <linearGradient id="linearGradient-15" y2="20.0076843%" x2="38.1376013%" y1="133.594066%" x1="118.461169%">
            <stop offset="0%" stop-color="#5792F0"></stop>
            <stop offset="100%" stop-color="#BFD4FA"></stop>
        </linearGradient>
        <linearGradient id="linearGradient-16" y2="20.0076843%" x2="42.3295958%" y1="133.594066%" x1="94.2680147%">
            <stop offset="0%" stop-color="#5792F0"></stop>
            <stop offset="100%" stop-color="#BFD4FA"></stop>
        </linearGradient>
        <linearGradient id="linearGradient-17" y2="100%" x2="50%" y1="12.9243097%" x1="50%">
            <stop offset="0%" stop-color="#FFCDA5"></stop>
            <stop offset="100%" stop-color="#FFE8D1"></stop>
        </linearGradient>
        <linearGradient id="linearGradient-18" y2="100%" x2="88.72%" y1="0%" x1="42.3145579%">
            <stop offset="0%" stop-color="#FFF2DF"></stop>
            <stop offset="100%" stop-color="#FEE0BC"></stop>
        </linearGradient>
        <linearGradient id="linearGradient-19" y2="73.6326896%" x2="100%" y1="11.7098971%" x1="14.3474826%">
            <stop offset="0%" stop-color="#BFD4FA"></stop>
            <stop offset="100%" stop-color="#5792F0"></stop>
        </linearGradient>
        <linearGradient id="linearGradient-20" y2="74.580348%" x2="10.2765284%" y1="42.0503368%" x1="172.425527%">
            <stop offset="0%" stop-color="#BFD4FA"></stop>
            <stop offset="100%" stop-color="#5792F0"></stop>
        </linearGradient>
        <linearGradient id="linearGradient-21" y2="50%" x2="-6.29144848%" y1="52.4797325%" x1="160.3088%">
            <stop offset="0%" stop-color="#BFD4FA"></stop>
            <stop offset="100%" stop-color="#5792F0"></stop>
        </linearGradient>
        <linearGradient id="linearGradient-22" y2="100%" x2="50%" y1="0%" x1="50%">
            <stop offset="0%" stop-color="#FEE127"></stop>
            <stop offset="100%" stop-color="#F9AB21"></stop>
        </linearGradient>
        <linearGradient id="linearGradient-23" y2="73.6421529%" x2="95.466239%" y1="32.4542466%" x1="8.33922697%">
            <stop offset="0%" stop-color="#FEE127"></stop>
            <stop offset="100%" stop-color="#F9AB21"></stop>
        </linearGradient>
    </defs>
    <g fill-rule="evenodd" fill="none" stroke-width="1" stroke="none" id="无权限">
        <rect height="1024" width="1024" y="0" x="0" id="矩形"></rect>
        <g transform="translate(32.000000, 149.000000)" id="编组">
            <g id="背景">
                <ellipse ry="250" rx="480" cy="766" cx="480" fill="url(#linearGradient-1)" id="椭圆形"></ellipse>
                <path fill="url(#linearGradient-2)" id="云" d="M814,116.212121 C814,130.606061 800.181818,142.121212 782.727273,142.121212 L686,142.121212 C668.545455,140.969697 654,130.030303 654,115.060606 C654,105.272727 660.545455,96.6363636 670,92.030303 C669.272727,90.3030303 668.545455,88.5757576 668.545455,86.8484848 C668.545455,77.0606061 678,68.4242424 690.363636,68.4242424 C695.454545,68.4242424 699.818182,70.1515152 703.454545,72.4545455 C712.181818,59.2121212 728.181818,50 747.090909,50 C773.272727,50 794.363636,67.8484848 794.363636,89.7272727 L794.363636,92.030303 C806,96.0606061 814,105.272727 814,116.212121 Z"></path>
                <path fill="url(#linearGradient-3)" id="云" d="M166.222222,0 C190.894883,0 211.8847,15.7681262 219.664106,37.7768098 L256.5,37.7777778 C266.164983,37.7777778 274,45.6127947 274,55.2777778 L274,98.0555556 C274,107.720539 266.164983,115.555556 256.5,115.555556 L78.1666667,115.555556 C68.5016835,115.555556 60.6666667,107.720539 60.6666667,98.0555556 L60.6669111,85.6467185 C56.4406838,78.8453656 54,70.81882 54,62.2222222 C54,37.6762333 73.8984556,17.7777778 98.4444444,17.7777778 C106.377692,17.7777778 113.825468,19.8563268 120.272891,23.4985432 C130.565544,9.26259942 147.312185,0 166.222222,0 Z"></path>
                <g transform="translate(170.000000, 570.000000)" id="草">
                    <ellipse ry="4" rx="12.8" cy="78" cx="26.8" fill="#CCDCF6" id="椭圆形"></ellipse>
                    <path fill-rule="nonzero" fill="url(#linearGradient-4)" id="路径-42" d="M13.2096985,76.4334696 C14.9527214,47.3262499 22.2548023,30.479152 35.1159413,25.892176 C40.1793835,25.2161532 45.8226773,24.1997042 41.8878028,30.7617951 C37.9529282,37.3238861 27.4160559,34.7701422 16.879533,76.4161198 C15.9265298,78.1966928 14.7032516,78.202476 13.2096985,76.4334696 Z"></path>
                    <path fill-rule="nonzero" fill="url(#linearGradient-5)" id="路径-41" d="M12.9692534,76.0688036 C9.54744327,48.8820916 6.74680699,31.7849012 4.56734456,24.7772324 C1.2981509,14.2657291 -5.66257226,-5.963969 8.82439601,1.68943966 C23.3113643,9.34284832 25.0241679,48.6011298 18.327685,72.4929976 C16.2462776,78.5387167 14.4601337,79.730652 12.9692534,76.0688036 Z"></path>
                </g>
                <g fill-rule="nonzero" transform="translate(686.120225, 515.426704)" id="草">
                    <path fill="url(#linearGradient-6)" id="路径-43" d="M65.8576891,95.4430222 C63.3395468,83.9806553 55.9856639,75.9680543 43.7960405,71.4052192 C29.8759357,66.9305791 22.2494886,61.6117041 30.9599814,57.7550267 C38.3155159,57.1703291 54.0022982,51.4419217 65.8576891,85.6583003 C66.6827635,88.9740418 66.6827635,92.2356158 65.8576891,95.4430222 Z"></path>
                    <path fill="url(#linearGradient-7)" id="路径-44" d="M66.4764949,97.2611071 C59.1454779,69.8960192 50.8174439,49.9170768 41.4923928,37.3242799 C34.6452589,28.7188412 35.1250476,16.405104 41.4923928,13.6218727 C48.0100381,12.8970718 60.0222617,11.7760378 69.0669112,58.9373338 C69.6381527,62.1812743 72.8251647,81.1589956 69.0669112,93.4066801 C68.5106318,95.0875751 67.6471596,96.3723841 66.4764949,97.2611071 Z"></path>
                    <path fill="url(#linearGradient-8)" id="路径-45" d="M68.1696321,91.0804085 C71.4853494,78.835463 71.0643832,62.8586309 66.9067333,43.1499123 C60.5471905,24.0440706 49.6921744,0.541796566 69.4774519,0 C77.5044316,1.09154868 87.1972186,9.50543486 83.5347739,51.4392686 C81.3029234,68.3604083 77.4213217,78.3565362 73.3477064,91.0804085 C71.9266832,91.8737887 70.2006584,91.8737887 68.1696321,91.0804085 Z"></path>
                    <path fill="url(#linearGradient-9)" id="路径-46" d="M72.0427224,95.836031 C70.7154818,61.2121058 77.0522244,36.363996 91.0529503,21.2917016 C94.833726,16.2551414 109.217459,11.5380494 109.163159,27.3263959 C107.661554,34.1152854 104.448437,48.6087163 85.9202741,70.7214245 C79.8162941,78.7025415 75.8046094,90.365172 75.7655073,93.0996265 C75.7394392,94.9225962 74.4985109,95.834731 72.0427224,95.836031 Z"></path>
                    <path fill="url(#linearGradient-10)" id="路径-47" d="M0,100.407711 C13.8643816,97.8236334 21.5103995,95.6299697 22.9380537,93.8267198 C25.0795349,91.1218449 43.9450099,79.5080271 55.7094426,89.2905093 C58.2703723,85.9992821 66.4835238,83.4391237 71.1837342,89.2905093 C73.3341085,80.0524096 86.7490663,74.1360276 92.583369,75.0945046 C99.1537088,74.5803177 118.55034,74.7942504 120,100.407711 C114.707841,100.530921 74.7078414,100.530921 0,100.407711 Z"></path>
                </g>
            </g>
            <path opacity="0.200000003" fill-rule="nonzero" fill="url(#linearGradient-11)" id="路径-14" d="M294.345174,601.630445 C294.345174,601.630445 284.750442,597.545852 265.560978,589.376666 L294.345174,589.376666 L254.643503,557.205753 L314.357966,579.418099 L343.31445,567.389534 L346.761645,589.376666 L406.002083,563.885198 L358.070615,605.536901 L406.002083,605.536901 L372.230936,613.120228 L397.174774,628.366017 L365.066593,618.132847 L430.938354,664.845939 C374.820548,641.007316 346.761645,629.991136 346.761645,631.797397 C346.761645,633.603659 350.531302,640.976666 358.070615,653.916418 L330.733484,638.625287 L325.717304,653.916418 L319.620987,644.450454 C287.977236,660.874754 272.15536,667.673248 272.15536,664.845939 C272.15536,662.018629 279.551965,653.278412 294.345174,638.625287 L194.395031,649.676843 L287.507617,621.101754 L245.227638,621.101754 L280.985974,611.337262 L190.938354,601.630445 C259.876234,601.630445 294.345174,601.630445 294.345174,601.630445 Z"></path>
            <path fill-rule="nonzero" fill="url(#linearGradient-12)" id="路径-14备份-2" d="M314.564622,606.28555 C314.564622,606.28555 311.728645,604.693355 306.056691,601.508965 L314.564622,601.508965 L302.829743,592 L320.479933,598.565447 L329.038788,595.010086 L330.057697,601.508965 L347.567777,593.974287 L333.400363,606.28555 L347.567777,606.28555 L337.58582,608.527003 L344.958632,613.033299 L335.468209,610.008615 L354.938351,623.815906 C338.351249,616.76977 330.057697,613.513646 330.057697,614.047534 C330.057697,614.581423 331.171919,616.76071 333.400363,620.585396 L325.32015,616.065698 L323.837485,620.585396 L322.035558,617.78748 C312.68241,622.642117 308.005836,624.651592 308.005836,623.815906 C308.005836,622.980219 310.192098,620.396817 314.564622,616.065698 L285.021712,619.332278 L312.543601,610.886154 L300.046635,610.886154 L310.615957,608 L284.106799,607.488712 C304.412014,606.686604 314.564622,606.28555 314.564622,606.28555 Z"></path>
            <path stroke-width="2" stroke="url(#linearGradient-13)" id="形状结合" d="M297.224034,179.967213 C326.601338,179.967213 338.567052,203.519317 338.567052,217.335842 C353.998661,219.573764 385.147541,235.909712 385.147541,266.078813 C385.147541,296.247915 360.485947,310.71116 352.369417,317.113959 C344.252887,323.516758 324.764687,328.202345 338.567052,343.60288 C347.768628,353.869904 348.385382,359.330464 340.417313,359.984562 L326.601338,359.984562 L326.601338,595.488224 L314.604262,607.344262 L291.667684,607.344262 L270.183013,574.986253 L270.183013,561.329986 L287.053383,550.994423 L287.053383,529.011393 L274.581211,516.511489 L274.581211,488.349994 L284.195572,470.02211 L284.195572,424.979537 L270.183013,412.313314 L270.183013,359.984562 L258.275808,359.984562 C247.40554,359.99523 247.40554,354.53467 258.275808,343.60288 C266.898252,334.40886 263.694438,325.715811 246.265845,317.113959 C231.882033,310.653716 209.347474,292.539161 212.295486,266.078813 C214.715839,242.014638 230.042613,225.766981 258.275808,217.335842 C264.656423,192.423423 277.639165,179.967213 297.224034,179.967213 Z M299.491803,205.213115 C286.046838,205.213115 275.147541,216.112412 275.147541,229.557377 C275.147541,243.002342 286.046838,253.901639 299.491803,253.901639 C312.936768,253.901639 323.836066,243.002342 323.836066,229.557377 C323.836066,216.112412 312.936768,205.213115 299.491803,205.213115 Z"></path>
            <path fill-rule="nonzero" fill="url(#linearGradient-14)" id="形状结合备份" d="M315.58469,179.967213 C344.961994,179.967213 356.927708,203.519317 356.927708,217.335842 C372.359317,219.573764 403.508197,235.909712 403.508197,266.078813 C403.508197,296.247915 378.846602,310.71116 370.730072,317.113959 C362.613542,323.516758 343.125343,328.202345 356.927708,343.60288 C366.129284,353.869904 366.746038,359.330464 358.777969,359.984562 L344.961994,359.984562 L344.961994,595.488224 L332.964918,607.344262 L310.028339,607.344262 L288.543668,574.986253 L288.543668,561.329986 L305.414039,550.994423 L305.414039,529.011393 L292.941867,516.511489 L292.941867,488.349994 L302.556228,470.02211 L302.556228,424.979537 L288.543668,412.313314 L288.543668,359.984562 L276.636464,359.984562 C265.766196,359.99523 265.766196,354.53467 276.636464,343.60288 C285.258907,334.40886 282.055093,325.715811 264.626501,317.113959 C250.242689,310.653716 227.70813,292.539161 230.656142,266.078813 C233.076495,242.014638 248.403269,225.766981 276.636464,217.335842 C283.017079,192.423423 295.999821,179.967213 315.58469,179.967213 Z M317.852459,205.213115 C304.407494,205.213115 293.508197,216.112412 293.508197,229.557377 C293.508197,243.002342 304.407494,253.901639 317.852459,253.901639 C331.297424,253.901639 342.196721,243.002342 342.196721,229.557377 C342.196721,216.112412 331.297424,205.213115 317.852459,205.213115 Z"></path>
            <g fill-rule="nonzero" fill="url(#linearGradient-15)" transform="translate(124.000000, 88.000000)" id="编组-3">
                <path id="形状结合备份-2" d="M10.8196721,182.131148 C16.795212,182.131148 21.6393443,186.97528 21.6393443,192.95082 C21.6393443,198.92636 16.795212,203.770492 10.8196721,203.770492 C4.84413222,203.770492 0,198.92636 0,192.95082 C0,186.97528 4.84413222,182.131148 10.8196721,182.131148 Z M10.8196721,186.639344 C7.33394051,186.639344 4.50819672,189.465088 4.50819672,192.95082 C4.50819672,196.436551 7.33394051,199.262295 10.8196721,199.262295 C14.3054037,199.262295 17.1311475,196.436551 17.1311475,192.95082 C17.1311475,189.465088 14.3054037,186.639344 10.8196721,186.639344 Z"></path>
                <path id="形状结合备份-7" d="M382.295082,324.590164 C386.278775,324.590164 389.508197,327.819585 389.508197,331.803279 C389.508197,335.786972 386.278775,339.016393 382.295082,339.016393 C378.311389,339.016393 375.081967,335.786972 375.081967,331.803279 C375.081967,327.819585 378.311389,324.590164 382.295082,324.590164 Z M382.295082,327.595628 C379.971261,327.595628 378.087432,329.479458 378.087432,331.803279 C378.087432,334.1271 379.971261,336.010929 382.295082,336.010929 C384.618903,336.010929 386.502732,334.1271 386.502732,331.803279 C386.502732,329.479458 384.618903,327.595628 382.295082,327.595628 Z"></path>
                <path id="形状结合" d="M161.098361,0 C162.755215,-7.48448398e-16 164.098361,1.34314575 164.098361,3 L164.097623,19.836 L180.934426,19.8360656 C182.59128,19.8360656 183.934426,21.1792113 183.934426,22.8360656 L183.934426,27.6557377 C183.934426,29.312592 182.59128,30.6557377 180.934426,30.6557377 L164.097623,30.655 L164.098361,47.4918033 C164.098361,49.1486575 162.755215,50.4918033 161.098361,50.4918033 L156.278689,50.4918033 C154.621834,50.4918033 153.278689,49.1486575 153.278689,47.4918033 L153.278623,30.655 L136.442623,30.6557377 C134.785769,30.6557377 133.442623,29.312592 133.442623,27.6557377 L133.442623,22.8360656 C133.442623,21.1792113 134.785769,19.8360656 136.442623,19.8360656 L153.278623,19.836 L153.278689,3 C153.278689,1.34314575 154.621834,-1.39730022e-16 156.278689,0 L161.098361,0 Z"></path>
                <path id="形状结合备份-3" d="M303.557377,84.7540984 C305.214231,84.7540984 306.557377,86.0972441 306.557377,87.7540984 L306.557311,97.3760984 L316.180328,97.3770492 C317.837182,97.3770492 319.180328,98.7201949 319.180328,100.377049 L319.180328,101.590164 C319.180328,103.247018 317.837182,104.590164 316.180328,104.590164 L306.557311,104.590098 L306.557377,114.213115 C306.557377,115.869969 305.214231,117.213115 303.557377,117.213115 L302.344262,117.213115 C300.687408,117.213115 299.344262,115.869969 299.344262,114.213115 L299.343311,104.590098 L289.721311,104.590164 C288.064457,104.590164 286.721311,103.247018 286.721311,101.590164 L286.721311,100.377049 C286.721311,98.7201949 288.064457,97.3770492 289.721311,97.3770492 L299.343311,97.3760984 L299.344262,87.7540984 C299.344262,86.0972441 300.687408,84.7540984 302.344262,84.7540984 L303.557377,84.7540984 Z"></path>
                <path id="形状结合备份-4" d="M348.606557,241.803279 C350.263412,241.803279 351.606557,243.146424 351.606557,244.803279 L351.606492,254.425279 L361.229508,254.42623 C362.886362,254.42623 364.229508,255.769375 364.229508,257.42623 L364.229508,258.639344 C364.229508,260.296199 362.886362,261.639344 361.229508,261.639344 L351.606492,261.639279 L351.606557,271.262295 C351.606557,272.919149 350.263412,274.262295 348.606557,274.262295 L347.393443,274.262295 C345.736588,274.262295 344.393443,272.919149 344.393443,271.262295 L344.392492,261.639279 L334.770492,261.639344 C333.113638,261.639344 331.770492,260.296199 331.770492,258.639344 L331.770492,257.42623 C331.770492,255.769375 333.113638,254.42623 334.770492,254.42623 L344.392492,254.425279 L344.393443,244.803279 C344.393443,243.146424 345.736588,241.803279 347.393443,241.803279 L348.606557,241.803279 Z"></path>
                <path id="形状结合备份-5" d="M37.0728597,297.540984 C38.729714,297.540984 40.0728597,298.884129 40.0728597,300.540984 L40.0727869,311.565984 L51.0983607,311.566485 C52.7552149,311.566485 54.0983607,312.90963 54.0983607,314.566485 L54.0983607,316.581056 C54.0983607,318.237911 52.7552149,319.581056 51.0983607,319.581056 L40.0727869,319.580984 L40.0728597,330.606557 C40.0728597,332.263412 38.729714,333.606557 37.0728597,333.606557 L35.0582878,333.606557 C33.4014335,333.606557 32.0582878,332.263412 32.0582878,330.606557 L32.0577869,319.580984 L21.0327869,319.581056 C19.3759326,319.581056 18.0327869,318.237911 18.0327869,316.581056 L18.0327869,314.566485 C18.0327869,312.90963 19.3759326,311.566485 21.0327869,311.566485 L32.0577869,311.565984 L32.0582878,300.540984 C32.0582878,298.884129 33.4014335,297.540984 35.0582878,297.540984 L37.0728597,297.540984 Z"></path>
                <path id="形状结合备份-6" d="M117.418944,384.098361 C119.075798,384.098361 120.418944,385.441506 120.418944,387.098361 L120.418885,395.318361 L128.639344,395.318761 C130.296199,395.318761 131.639344,396.661907 131.639344,398.318761 L131.639344,398.730419 C131.639344,400.387273 130.296199,401.730419 128.639344,401.730419 L120.418885,401.730361 L120.418944,409.95082 C120.418944,411.607674 119.075798,412.95082 117.418944,412.95082 L117.007286,412.95082 C115.350432,412.95082 114.007286,411.607674 114.007286,409.95082 L114.006885,401.730361 L105.786885,401.730419 C104.130031,401.730419 102.786885,400.387273 102.786885,398.730419 L102.786885,398.318761 C102.786885,396.661907 104.130031,395.318761 105.786885,395.318761 L114.006885,395.318361 L114.007286,387.098361 C114.007286,385.441506 115.350432,384.098361 117.007286,384.098361 L117.418944,384.098361 Z"></path>
            </g>
            <g fill-rule="nonzero" fill="url(#linearGradient-16)" transform="translate(371.049180, 439.639344)" id="锁">
                <path id="形状" d="M128.934356,174.918033 L11.7213818,174.918033 C5.2484177,174.918033 0,169.696799 0,163.257017 L0,81.6285086 C0,75.1884464 5.2484177,69.9672131 11.7213818,69.9672131 L23.4427636,69.9672131 L23.4427636,46.644902 C23.4427636,20.8796157 44.4355905,0 70.3280095,0 C96.2204285,0 117.213255,20.8796157 117.213255,46.644902 L117.213255,69.9672131 L128.934637,69.9672131 C135.407601,69.9672131 140.655738,75.1884464 140.655738,81.6285086 L140.655738,163.257017 C140.655738,169.696799 135.40732,174.918033 128.934356,174.918033 Z M64.467178,127.202912 L64.467178,145.765214 C64.467178,148.982026 67.0881517,151.595722 70.3277282,151.595722 C73.5673047,151.595722 76.1885598,148.982026 76.1885598,145.765214 L76.1885598,127.202912 C82.999097,124.788764 87.9096602,118.382845 87.9096602,110.781607 C87.9096602,101.119135 80.0399875,93.2898041 70.3277282,93.2898041 C60.6154689,93.2898041 52.7457961,101.119135 52.7457961,110.781607 C52.7457961,118.382845 57.6563594,124.788764 64.467178,127.202912 L64.467178,127.202912 Z M93.7704918,46.644902 C93.7704918,33.7650576 83.2739377,23.322591 70.3277282,23.322591 C57.3815187,23.322591 46.8852459,33.7653374 46.8852459,46.644902 L46.8852459,69.9672131 L93.7704918,69.9672131 L93.7704918,46.644902 L93.7704918,46.644902 Z"></path>
            </g>
            <g transform="translate(512.000000, 525.976613)" id="人物">
                <ellipse ry="22" rx="86" cy="152.023387" cx="86" fill="#CCDCF6" id="椭圆形"></ellipse>
                <g transform="translate(85.647608, 37.778026) rotate(33.000000) translate(-85.647608, -37.778026) translate(62.423630, 7.814722)" id="头">
                    <rect height="16.1985322" width="16.1985322" y="43.7280763" x="19.9412671" fill="url(#linearGradient-17)" id="矩形"></rect>
                    <ellipse ry="18.407423" rx="16.1985322" cy="31.2110287" cx="30.249424" fill="url(#linearGradient-18)" id="椭圆形"></ellipse>
                    <path fill="#483029" id="路径-53" d="M44.9446709,19.475009 C40.4492042,25.6639632 35.3555465,29.3945384 29.6636978,30.6667346 C27.6926153,31.6264045 23.3869406,28.656215 22.4799345,32.6555195 C22.2223083,35.3372876 23.7349504,39.0176754 25.8756732,38.3554536 C25.1165253,40.7206727 22.9857722,43.3872853 19.483414,46.3552915 C15.1226122,47.1637231 11.0950297,46.3321366 7.40066654,43.8605321 C-0.0946765273,38.1873649 -5.0826684,18.9357101 8.62237905,9.3369261 C8.98064909,9.12932834 23.2642553,-4.49002434 39.2864651,8.9219692 C43.1580191,11.8924093 45.0440877,15.4100892 44.9446709,19.475009 Z"></path>
                    <circle r="8.18107688" cy="8.18107688" cx="10.016426" fill="#483029" id="椭圆形"></circle>
                </g>
                <path transform="translate(142.322523, 144.722480) scale(-1, 1) translate(-142.322523, -144.722480)" fill-rule="nonzero" fill="url(#linearGradient-19)" id="路径-52" d="M146.508296,138.674864 L145.588768,144.684171 C141.843949,144.801284 137.771512,145.902059 133.371457,147.986495 C130.540037,149.803095 130.414018,150.626199 130.322867,152.190372 C130.262099,153.233154 138.261985,153.233154 154.322523,152.190372 L154.322523,136.472501 L146.508296,138.674864 Z"></path>
                <path fill-rule="nonzero" fill="url(#linearGradient-20)" id="Fill-1706" d="M74.1097345,115.800093 C81.0680166,105.555914 98.2999642,81.8243121 118.029309,83.817095 C136.07905,85.6403206 141.816345,141.714895 141.816345,141.714895 L127.106428,141.887119 L112.883052,108.011573 L81.8414911,147.113108 L59.2267015,138.414882 L74.1097345,115.800093 Z"></path>
                <path fill-rule="nonzero" fill="url(#linearGradient-21)" id="Fill-1708" d="M21.2753663,115.178919 C16.8544412,130.653404 15.8625382,154.803673 31.3080984,158.201777 C39.8108364,160.072379 50.8643957,158.881996 79.4325978,159.052049 C107.663185,159.22011 126.026604,160.582543 125.856549,145.108059 C125.686495,129.633075 91.5064863,133.544334 84.1941314,132.864115 C76.8822754,132.183896 43.0418769,131.843787 43.0418769,131.843787 L21.2753663,115.178919 Z"></path>
                <path fill="url(#linearGradient-22)" id="Fill-1709" d="M82.4945741,70.0246832 C82.4945741,70.0246832 80.6201894,68.198093 76.5117775,64.4958146 C68.6937562,58.7657385 71.7018508,54.0679024 71.7018508,54.0679024 C71.7018508,54.0679024 52.488327,52.2494104 36.8312129,79.7691298 C27.4010721,96.3440126 16.669891,122.418951 16.669891,122.418951 C16.669891,122.418951 27.6237947,135.698195 67.0760003,132.127046 C67.0760003,132.127046 78.922982,109.567113 85.0444548,98.6841061 C89.1254368,91.4284367 88.2754765,81.8752957 82.4945741,70.0246832 Z"></path>
                <polygon points="134 100.023387 154 100.023387 154 102.023387 134 102.023387" transform="translate(144.000000, 101.023387) scale(-1, 1) rotate(20.000000) translate(-144.000000, -101.023387)" fill="#483029" id="矩形"></polygon>
                <path transform="translate(139.321050, 104.994802) rotate(-19.000000) translate(-139.321050, -104.994802)" fill="#FEE0BC" id="路径-50备份" d="M131.320788,102.641271 C132.791876,102.42768 134.333825,102.224962 135.946635,102.033119 C136.477557,101.740702 137.171141,101.521552 138.027385,101.375668 C139.6231,101.435522 140.297245,101.749321 140.049819,102.317064 C139.802394,102.884807 139.333985,103.247823 138.644592,103.406114 L141.250095,103.724769 L143.940078,103.371518 C146.775088,103.065027 147.827328,103.90953 147.0968,105.905029 C145.830266,107.990071 142.568537,109.647929 137.863829,107.841515 C136.863404,107.080399 135.295166,106.636916 133.159115,106.511064 L131.320788,102.641271 Z"></path>
                <path fill="url(#linearGradient-23)" id="路径-3" d="M133.294476,103.663968 L90.9828946,119.641549 L79.779102,75.3206576 C76.4256498,67.5854715 70.5370502,64.3339072 62.1133033,65.5659649 C56.1306551,68.3081166 53.3847381,74.0115161 53.8413004,80.1980039 C54.2978627,86.3844917 63.1521394,112.352376 72.1460606,123.905836 C78.9549483,131.742837 83.0614117,137.164391 92.8600829,134.657092 C97.9211445,132.926276 112.568988,125.6257 136.803612,112.755362 L133.294476,103.663968 Z"></path>
            </g>
        </g>
    </g>
</svg>